<mxfile host="65bd71144e">
    <diagram id="daAU8c42POlejsFDMEc9" name="Page-1">
        <mxGraphModel dx="-432" dy="330" grid="1" gridSize="10" guides="1" tooltips="1" connect="1" arrows="1" fold="1" page="1" pageScale="1" pageWidth="850" pageHeight="1100" math="0" shadow="0">
            <root>
                <mxCell id="0"/>
                <mxCell id="1" parent="0"/>
                <UserObject label="" tags="Background" id="2">
                    <mxCell style="vsdxID=110000;fillColor=none;gradientColor=none;strokeColor=none;spacingTop=-3;spacingBottom=-3;spacingLeft=-3;spacingRight=-3;points=[];labelBackgroundColor=none;rounded=0;html=1;whiteSpace=wrap;" parent="1" vertex="1">
                        <mxGeometry x="860" y="10" width="1100" height="850" as="geometry"/>
                    </mxCell>
                </UserObject>
                <mxCell id="3" style="vsdxID=2;fillColor=#ffffff;gradientColor=none;shape=stencil(nZBRDoQgDERP03+WHsHFe5iISyOCQdT19kIaIxq//Jtp3zTpAFaTaUYNUkwx+F6v1EYD+AUpyRkdKCYFqACrzgf9C352LfuxyWRWg1/yhT/nRE5IsZWuZtCSK8CPeI0e/hF+jV7AJM4PO7KWCyr390bSiNtEtQM=);strokeColor=#000000;spacingTop=-3;spacingBottom=-3;spacingLeft=-3;spacingRight=-3;points=[];labelBackgroundColor=none;rounded=0;html=1;whiteSpace=wrap;" parent="2" vertex="1">
                    <mxGeometry width="1100" height="850" as="geometry"/>
                </mxCell>
                <mxCell id="4" style="vsdxID=310000;fillColor=none;gradientColor=none;strokeColor=none;spacingTop=-3;spacingBottom=-3;spacingLeft=-3;spacingRight=-3;points=[];labelBackgroundColor=none;rounded=0;html=1;whiteSpace=wrap;" parent="2" vertex="1">
                    <mxGeometry width="163" height="450" as="geometry"/>
                </mxCell>
                <mxCell id="5" value="&lt;div style=&quot;font-size: 1px&quot;&gt;&lt;font style=&quot;font-size:11.64px;font-family:Helvetica;color:#000000;direction:ltr;letter-spacing:0px;line-height:120%;opacity:1&quot;&gt;&lt;b&gt;users (รวมทุกคน)&lt;/b&gt;&lt;/font&gt;&lt;/div&gt;" style="verticalAlign=middle;align=center;vsdxID=3;fillColor=#F875AA;gradientColor=none;shape=stencil(rZRNDoMgEIVPw9YgY9Gurb2HiVhJrRjE/ty+UGKbYmwc091jeDP5JoRHIB+asheE0cFodRY3WZmGwIEwJrtGaGmsIlAQyGulxUmrsav8uS+d06mLuroJd99HXQejD3/iEU9fhaP3trJb9NJlY0w3W0MCKz7otWxbv/n7/v97TUSrcFHmkGI7MW5ynEUAmOkzfwxTZWXDzyefu7E8gOVJUDwJlmeH5eEoHo7lSbE8GYonw/LssTzBv/pKgSABrAjDzpZ8UELxBA==);strokeColor=#F875AA;spacingTop=-3;spacingBottom=-3;spacingLeft=-3;spacingRight=-3;points=[];labelBackgroundColor=none;rounded=0;html=1;whiteSpace=wrap;" parent="4" vertex="1">
                    <mxGeometry width="163" height="450" as="geometry"/>
                </mxCell>
                <mxCell id="6" style="vsdxID=410000;fillColor=none;gradientColor=none;strokeColor=none;spacingTop=-3;spacingBottom=-3;spacingLeft=-3;spacingRight=-3;points=[];labelBackgroundColor=none;rounded=0;html=1;whiteSpace=wrap;" parent="4" vertex="1">
                    <mxGeometry y="30" width="163" height="30" as="geometry"/>
                </mxCell>
                <mxCell id="7" value="&lt;div style=&quot;font-size: 1px&quot;&gt;&lt;font style=&quot;font-size:11.64px;font-family:Helvetica;color:#000000;direction:ltr;letter-spacing:0px;line-height:120%;opacity:1&quot;&gt;&lt;b&gt;PK&lt;/b&gt;&lt;/font&gt;&lt;/div&gt;" style="verticalAlign=middle;align=center;vsdxID=5;fillColor=none;gradientColor=none;shape=stencil(nZJZDsMgDERP43+Kj5Cm94gUUqxSiAjpcvuCrGahFVL4m8HPlkcYsJl0NyqQYgre3dST+qABzyAlWa08hagAW8BmcF5dvZttz37sEpnU3T3ShBf3idQhxXvrLgwashvwJKrRr/8LV6M7MIo14UDGLJWK4HuwGLyMZml+luRfPLhqaWg2MIr8DuIT3xC2Hw==);strokeColor=#F875AA;spacingTop=-3;spacingBottom=-3;spacingLeft=-3;spacingRight=-3;points=[];labelBackgroundColor=none;rounded=0;html=1;whiteSpace=wrap;" parent="6" vertex="1">
                    <mxGeometry width="30" height="30" as="geometry"/>
                </mxCell>
                <mxCell id="8" value="&lt;div style=&quot;font-size: 1px&quot;&gt;&lt;font style=&quot;font-size:11.64px;font-family:Helvetica;color:#000000;direction:ltr;letter-spacing:0px;line-height:120%;opacity:1&quot;&gt;&lt;u&gt;&lt;b&gt;user_id&lt;/b&gt;&lt;/u&gt;&lt;/font&gt;&lt;/div&gt;" style="verticalAlign=middle;align=left;vsdxID=6;fillColor=none;gradientColor=none;shape=stencil(nZJZDsMgDERP43+Kj5Cm94gUUqxSiAjpcvuCrGahFVL4m8HPlkcYsJl0NyqQYgre3dST+qABzyAlWa08hagAW8BmcF5dvZttz37sEpnU3T3ShBf3idQhxXvrLgwashvwJKrRr/8LV6M7MIo14UDGLJWK4HuwGLyMZml+luRfPLhqaWg2MIr8DuIT3xC2Hw==);strokeColor=#F875AA;spacingTop=-3;spacingBottom=-3;spacingLeft=-3;spacingRight=-3;points=[];labelBackgroundColor=none;rounded=0;html=1;whiteSpace=wrap;" parent="6" vertex="1">
                    <mxGeometry x="30" width="133" height="30" as="geometry"/>
                </mxCell>
                <mxCell id="9" style="vsdxID=710000;fillColor=none;gradientColor=none;strokeColor=none;spacingTop=-3;spacingBottom=-3;spacingLeft=-3;spacingRight=-3;points=[];labelBackgroundColor=none;rounded=0;html=1;whiteSpace=wrap;" parent="4" vertex="1">
                    <mxGeometry y="60" width="163" height="30" as="geometry"/>
                </mxCell>
                <mxCell id="10" style="vsdxID=7;fillColor=none;gradientColor=none;shape=stencil(UzV2Ls5ILEhVNTIoLinKz04tz0wpyVA1dlE1MsrMy0gtyiwBslSNXVWNndPyi1LTi/JL81Ig/IJEkEoQKze/DGRCBUSfAUiHkUElMs8NojAnMw9JoaEB2UphfKyKyVaKohDIQPgwLTMnBy5DhsdRFeL1OIa9kIghaDv1ggjFBWi2Axno6QAoBElDxq4A);strokeColor=#F875AA;strokeWidth=2;spacingTop=-3;spacingBottom=-3;spacingLeft=-3;spacingRight=-3;points=[];labelBackgroundColor=none;rounded=0;html=1;whiteSpace=wrap;" parent="9" vertex="1">
                    <mxGeometry width="163" height="30" as="geometry"/>
                </mxCell>
                <mxCell id="11" value="&lt;div style=&quot;font-size: 1px&quot;&gt;&lt;font style=&quot;font-size:11.64px;font-family:Helvetica;color:#000000;direction:ltr;letter-spacing:0px;line-height:120%;opacity:1&quot;&gt;&lt;b&gt;FK&lt;/b&gt;&lt;/font&gt;&lt;/div&gt;" style="verticalAlign=middle;align=center;vsdxID=8;fillColor=none;gradientColor=none;shape=stencil(nZJZDsMgDERP43+Kj5Cm94gUUqxSiAjpcvuCrGahFVL4m8HPlkcYsJl0NyqQYgre3dST+qABzyAlWa08hagAW8BmcF5dvZttz37sEpnU3T3ShBf3idQhxXvrLgwashvwJKrRr/8LV6M7MIo14UDGLJWK4HuwGLyMZml+luRfPLhqaWg2MIr8DuIT3xC2Hw==);strokeColor=#F875AA;spacingTop=-3;spacingBottom=-3;spacingLeft=-3;spacingRight=-3;points=[];labelBackgroundColor=none;rounded=0;html=1;whiteSpace=wrap;" parent="9" vertex="1">
                    <mxGeometry width="30" height="30" as="geometry"/>
                </mxCell>
                <mxCell id="12" value="&lt;div style=&quot;font-size: 1px&quot;&gt;&lt;font style=&quot;font-size:11.64px;font-family:Helvetica;color:#000000;direction:ltr;letter-spacing:0px;line-height:120%;opacity:1&quot;&gt;&lt;u&gt;&lt;b&gt;class_id&lt;/b&gt;&lt;/u&gt;&lt;/font&gt;&lt;/div&gt;" style="verticalAlign=middle;align=left;vsdxID=9;fillColor=none;gradientColor=none;shape=stencil(nZJZDsMgDERP43+Kj5Cm94gUUqxSiAjpcvuCrGahFVL4m8HPlkcYsJl0NyqQYgre3dST+qABzyAlWa08hagAW8BmcF5dvZttz37sEpnU3T3ShBf3idQhxXvrLgwashvwJKrRr/8LV6M7MIo14UDGLJWK4HuwGLyMZml+luRfPLhqaWg2MIr8DuIT3xC2Hw==);strokeColor=#F875AA;spacingTop=-3;spacingBottom=-3;spacingLeft=-3;spacingRight=-3;points=[];labelBackgroundColor=none;rounded=0;html=1;whiteSpace=wrap;" parent="9" vertex="1">
                    <mxGeometry x="30" width="133" height="30" as="geometry"/>
                </mxCell>
                <mxCell id="13" style="vsdxID=1010000;fillColor=none;gradientColor=none;strokeColor=none;spacingTop=-3;spacingBottom=-3;spacingLeft=-3;spacingRight=-3;points=[];labelBackgroundColor=none;rounded=0;html=1;whiteSpace=wrap;" parent="4" vertex="1">
                    <mxGeometry y="90" width="163" height="30" as="geometry"/>
                </mxCell>
                <mxCell id="14" style="vsdxID=11;fillColor=none;gradientColor=none;shape=stencil(nZJZDsMgDERP43+Kj5Cm94gUUqxSiAjpcvuCrGahFVL4m8HPlkcYsJl0NyqQYgre3dST+qABzyAlWa08hagAW8BmcF5dvZttz37sEpnU3T3ShBf3idQhxXvrLgwashvwJKrRr/8LV6M7MIo14UDGLJWK4HuwGLyMZml+luRfPLhqaWg2MIr8DuIT3xC2Hw==);strokeColor=#F875AA;spacingTop=-3;spacingBottom=-3;spacingLeft=-3;spacingRight=-3;points=[];labelBackgroundColor=none;rounded=0;html=1;whiteSpace=wrap;" parent="13" vertex="1">
                    <mxGeometry width="30" height="30" as="geometry"/>
                </mxCell>
                <mxCell id="15" value="&lt;div style=&quot;font-size: 1px&quot;&gt;&lt;font style=&quot;font-size:11.64px;font-family:Helvetica;color:#000000;direction:ltr;letter-spacing:0px;line-height:120%;opacity:1&quot;&gt;user_username&lt;/font&gt;&lt;/div&gt;" style="verticalAlign=middle;align=left;vsdxID=12;fillColor=none;gradientColor=none;shape=stencil(nZJZDsMgDERP43+Kj5Cm94gUUqxSiAjpcvuCrGahFVL4m8HPlkcYsJl0NyqQYgre3dST+qABzyAlWa08hagAW8BmcF5dvZttz37sEpnU3T3ShBf3idQhxXvrLgwashvwJKrRr/8LV6M7MIo14UDGLJWK4HuwGLyMZml+luRfPLhqaWg2MIr8DuIT3xC2Hw==);strokeColor=#F875AA;spacingTop=-3;spacingBottom=-3;spacingLeft=-3;spacingRight=-3;points=[];labelBackgroundColor=none;rounded=0;html=1;whiteSpace=wrap;" parent="13" vertex="1">
                    <mxGeometry x="30" width="133" height="30" as="geometry"/>
                </mxCell>
                <mxCell id="16" style="vsdxID=1310000;fillColor=none;gradientColor=none;strokeColor=none;spacingTop=-3;spacingBottom=-3;spacingLeft=-3;spacingRight=-3;points=[];labelBackgroundColor=none;rounded=0;html=1;whiteSpace=wrap;" parent="4" vertex="1">
                    <mxGeometry y="120" width="163" height="30" as="geometry"/>
                </mxCell>
                <mxCell id="17" style="vsdxID=14;fillColor=none;gradientColor=none;shape=stencil(nZJZDsMgDERP43+Kj5Cm94gUUqxSiAjpcvuCrGahFVL4m8HPlkcYsJl0NyqQYgre3dST+qABzyAlWa08hagAW8BmcF5dvZttz37sEpnU3T3ShBf3idQhxXvrLgwashvwJKrRr/8LV6M7MIo14UDGLJWK4HuwGLyMZml+luRfPLhqaWg2MIr8DuIT3xC2Hw==);strokeColor=#F875AA;spacingTop=-3;spacingBottom=-3;spacingLeft=-3;spacingRight=-3;points=[];labelBackgroundColor=none;rounded=0;html=1;whiteSpace=wrap;" parent="16" vertex="1">
                    <mxGeometry width="30" height="30" as="geometry"/>
                </mxCell>
                <mxCell id="18" value="&lt;div style=&quot;font-size: 1px&quot;&gt;&lt;font style=&quot;font-size:11.64px;font-family:Helvetica;color:#000000;direction:ltr;letter-spacing:0px;line-height:120%;opacity:1&quot;&gt;user_password&lt;/font&gt;&lt;/div&gt;" style="verticalAlign=middle;align=left;vsdxID=15;fillColor=none;gradientColor=none;shape=stencil(nZJZDsMgDERP43+Kj5Cm94gUUqxSiAjpcvuCrGahFVL4m8HPlkcYsJl0NyqQYgre3dST+qABzyAlWa08hagAW8BmcF5dvZttz37sEpnU3T3ShBf3idQhxXvrLgwashvwJKrRr/8LV6M7MIo14UDGLJWK4HuwGLyMZml+luRfPLhqaWg2MIr8DuIT3xC2Hw==);strokeColor=#F875AA;spacingTop=-3;spacingBottom=-3;spacingLeft=-3;spacingRight=-3;points=[];labelBackgroundColor=none;rounded=0;html=1;whiteSpace=wrap;" parent="16" vertex="1">
                    <mxGeometry x="30" width="133" height="30" as="geometry"/>
                </mxCell>
                <mxCell id="19" style="vsdxID=1610000;fillColor=none;gradientColor=none;strokeColor=none;spacingTop=-3;spacingBottom=-3;spacingLeft=-3;spacingRight=-3;points=[];labelBackgroundColor=none;rounded=0;html=1;whiteSpace=wrap;" parent="4" vertex="1">
                    <mxGeometry y="150" width="163" height="30" as="geometry"/>
                </mxCell>
                <mxCell id="20" style="vsdxID=17;fillColor=none;gradientColor=none;shape=stencil(nZJZDsMgDERP43+Kj5Cm94gUUqxSiAjpcvuCrGahFVL4m8HPlkcYsJl0NyqQYgre3dST+qABzyAlWa08hagAW8BmcF5dvZttz37sEpnU3T3ShBf3idQhxXvrLgwashvwJKrRr/8LV6M7MIo14UDGLJWK4HuwGLyMZml+luRfPLhqaWg2MIr8DuIT3xC2Hw==);strokeColor=#F875AA;spacingTop=-3;spacingBottom=-3;spacingLeft=-3;spacingRight=-3;points=[];labelBackgroundColor=none;rounded=0;html=1;whiteSpace=wrap;" parent="19" vertex="1">
                    <mxGeometry width="30" height="30" as="geometry"/>
                </mxCell>
                <mxCell id="21" value="&lt;div style=&quot;font-size: 1px&quot;&gt;&lt;font style=&quot;font-size:11.64px;font-family:Helvetica;color:#000000;direction:ltr;letter-spacing:0px;line-height:120%;opacity:1&quot;&gt;user_role @D(user)&lt;/font&gt;&lt;/div&gt;" style="verticalAlign=middle;align=left;vsdxID=18;fillColor=none;gradientColor=none;shape=stencil(nZJZDsMgDERP43+Kj5Cm94gUUqxSiAjpcvuCrGahFVL4m8HPlkcYsJl0NyqQYgre3dST+qABzyAlWa08hagAW8BmcF5dvZttz37sEpnU3T3ShBf3idQhxXvrLgwashvwJKrRr/8LV6M7MIo14UDGLJWK4HuwGLyMZml+luRfPLhqaWg2MIr8DuIT3xC2Hw==);strokeColor=#F875AA;spacingTop=-3;spacingBottom=-3;spacingLeft=-3;spacingRight=-3;points=[];labelBackgroundColor=none;rounded=0;html=1;whiteSpace=wrap;" parent="19" vertex="1">
                    <mxGeometry x="30" width="133" height="30" as="geometry"/>
                </mxCell>
                <mxCell id="22" style="vsdxID=1910000;fillColor=none;gradientColor=none;strokeColor=none;spacingTop=-3;spacingBottom=-3;spacingLeft=-3;spacingRight=-3;points=[];labelBackgroundColor=none;rounded=0;html=1;whiteSpace=wrap;" parent="4" vertex="1">
                    <mxGeometry y="180" width="163" height="30" as="geometry"/>
                </mxCell>
                <mxCell id="23" style="vsdxID=20;fillColor=none;gradientColor=none;shape=stencil(nZJZDsMgDERP43+Kj5Cm94gUUqxSiAjpcvuCrGahFVL4m8HPlkcYsJl0NyqQYgre3dST+qABzyAlWa08hagAW8BmcF5dvZttz37sEpnU3T3ShBf3idQhxXvrLgwashvwJKrRr/8LV6M7MIo14UDGLJWK4HuwGLyMZml+luRfPLhqaWg2MIr8DuIT3xC2Hw==);strokeColor=#F875AA;spacingTop=-3;spacingBottom=-3;spacingLeft=-3;spacingRight=-3;points=[];labelBackgroundColor=none;rounded=0;html=1;whiteSpace=wrap;" parent="22" vertex="1">
                    <mxGeometry width="30" height="30" as="geometry"/>
                </mxCell>
                <mxCell id="24" value="&lt;div style=&quot;font-size: 1px&quot;&gt;&lt;font style=&quot;font-size:11.64px;font-family:Helvetica;color:#000000;direction:ltr;letter-spacing:0px;line-height:120%;opacity:1&quot;&gt;user_firstname&lt;/font&gt;&lt;/div&gt;" style="verticalAlign=middle;align=center;vsdxID=21;fillColor=none;gradientColor=none;shape=stencil(nZJZDsMgDERP43+Kj5Cm94gUUqxSiAjpcvuCrGahFVL4m8HPlkcYsJl0NyqQYgre3dST+qABzyAlWa08hagAW8BmcF5dvZttz37sEpnU3T3ShBf3idQhxXvrLgwashvwJKrRr/8LV6M7MIo14UDGLJWK4HuwGLyMZml+luRfPLhqaWg2MIr8DuIT3xC2Hw==);strokeColor=#F875AA;spacingTop=-3;spacingBottom=-3;spacingLeft=-3;spacingRight=-3;points=[];labelBackgroundColor=none;rounded=0;html=1;whiteSpace=wrap;" parent="22" vertex="1">
                    <mxGeometry x="30" width="133" height="30" as="geometry"/>
                </mxCell>
                <mxCell id="25" style="vsdxID=2210000;fillColor=none;gradientColor=none;strokeColor=none;spacingTop=-3;spacingBottom=-3;spacingLeft=-3;spacingRight=-3;points=[];labelBackgroundColor=none;rounded=0;html=1;whiteSpace=wrap;" parent="4" vertex="1">
                    <mxGeometry y="210" width="163" height="30" as="geometry"/>
                </mxCell>
                <mxCell id="26" style="vsdxID=23;fillColor=none;gradientColor=none;shape=stencil(nZJZDsMgDERP43+Kj5Cm94gUUqxSiAjpcvuCrGahFVL4m8HPlkcYsJl0NyqQYgre3dST+qABzyAlWa08hagAW8BmcF5dvZttz37sEpnU3T3ShBf3idQhxXvrLgwashvwJKrRr/8LV6M7MIo14UDGLJWK4HuwGLyMZml+luRfPLhqaWg2MIr8DuIT3xC2Hw==);strokeColor=#F875AA;spacingTop=-3;spacingBottom=-3;spacingLeft=-3;spacingRight=-3;points=[];labelBackgroundColor=none;rounded=0;html=1;whiteSpace=wrap;" parent="25" vertex="1">
                    <mxGeometry width="30" height="30" as="geometry"/>
                </mxCell>
                <mxCell id="27" value="&lt;div style=&quot;font-size: 1px&quot;&gt;&lt;font style=&quot;font-size:11.64px;font-family:Helvetica;color:#000000;direction:ltr;letter-spacing:0px;line-height:120%;opacity:1&quot;&gt;user_lastname&lt;/font&gt;&lt;/div&gt;" style="verticalAlign=middle;align=center;vsdxID=24;fillColor=none;gradientColor=none;shape=stencil(nZJZDsMgDERP43+Kj5Cm94gUUqxSiAjpcvuCrGahFVL4m8HPlkcYsJl0NyqQYgre3dST+qABzyAlWa08hagAW8BmcF5dvZttz37sEpnU3T3ShBf3idQhxXvrLgwashvwJKrRr/8LV6M7MIo14UDGLJWK4HuwGLyMZml+luRfPLhqaWg2MIr8DuIT3xC2Hw==);strokeColor=#F875AA;spacingTop=-3;spacingBottom=-3;spacingLeft=-3;spacingRight=-3;points=[];labelBackgroundColor=none;rounded=0;html=1;whiteSpace=wrap;" parent="25" vertex="1">
                    <mxGeometry x="30" width="133" height="30" as="geometry"/>
                </mxCell>
                <mxCell id="28" style="vsdxID=2510000;fillColor=none;gradientColor=none;strokeColor=none;spacingTop=-3;spacingBottom=-3;spacingLeft=-3;spacingRight=-3;points=[];labelBackgroundColor=none;rounded=0;html=1;whiteSpace=wrap;" parent="4" vertex="1">
                    <mxGeometry y="240" width="163" height="30" as="geometry"/>
                </mxCell>
                <mxCell id="29" style="vsdxID=26;fillColor=none;gradientColor=none;shape=stencil(nZJZDsMgDERP43+Kj5Cm94gUUqxSiAjpcvuCrGahFVL4m8HPlkcYsJl0NyqQYgre3dST+qABzyAlWa08hagAW8BmcF5dvZttz37sEpnU3T3ShBf3idQhxXvrLgwashvwJKrRr/8LV6M7MIo14UDGLJWK4HuwGLyMZml+luRfPLhqaWg2MIr8DuIT3xC2Hw==);strokeColor=#F875AA;spacingTop=-3;spacingBottom=-3;spacingLeft=-3;spacingRight=-3;points=[];labelBackgroundColor=none;rounded=0;html=1;whiteSpace=wrap;" parent="28" vertex="1">
                    <mxGeometry width="30" height="30" as="geometry"/>
                </mxCell>
                <mxCell id="30" value="&lt;div style=&quot;font-size: 1px&quot;&gt;&lt;font style=&quot;font-size:11.64px;font-family:Helvetica;color:#000000;direction:ltr;letter-spacing:0px;line-height:120%;opacity:1&quot;&gt;user_nickname&lt;/font&gt;&lt;/div&gt;" style="verticalAlign=middle;align=center;vsdxID=27;fillColor=none;gradientColor=none;shape=stencil(nZJZDsMgDERP43+Kj5Cm94gUUqxSiAjpcvuCrGahFVL4m8HPlkcYsJl0NyqQYgre3dST+qABzyAlWa08hagAW8BmcF5dvZttz37sEpnU3T3ShBf3idQhxXvrLgwashvwJKrRr/8LV6M7MIo14UDGLJWK4HuwGLyMZml+luRfPLhqaWg2MIr8DuIT3xC2Hw==);strokeColor=#F875AA;spacingTop=-3;spacingBottom=-3;spacingLeft=-3;spacingRight=-3;points=[];labelBackgroundColor=none;rounded=0;html=1;whiteSpace=wrap;" parent="28" vertex="1">
                    <mxGeometry x="30" width="133" height="30" as="geometry"/>
                </mxCell>
                <mxCell id="31" style="vsdxID=2810000;fillColor=none;gradientColor=none;strokeColor=none;spacingTop=-3;spacingBottom=-3;spacingLeft=-3;spacingRight=-3;points=[];labelBackgroundColor=none;rounded=0;html=1;whiteSpace=wrap;" parent="4" vertex="1">
                    <mxGeometry y="270" width="163" height="30" as="geometry"/>
                </mxCell>
                <mxCell id="32" style="vsdxID=29;fillColor=none;gradientColor=none;shape=stencil(nZJZDsMgDERP43+Kj5Cm94gUUqxSiAjpcvuCrGahFVL4m8HPlkcYsJl0NyqQYgre3dST+qABzyAlWa08hagAW8BmcF5dvZttz37sEpnU3T3ShBf3idQhxXvrLgwashvwJKrRr/8LV6M7MIo14UDGLJWK4HuwGLyMZml+luRfPLhqaWg2MIr8DuIT3xC2Hw==);strokeColor=#F875AA;spacingTop=-3;spacingBottom=-3;spacingLeft=-3;spacingRight=-3;points=[];labelBackgroundColor=none;rounded=0;html=1;whiteSpace=wrap;" parent="31" vertex="1">
                    <mxGeometry width="30" height="30" as="geometry"/>
                </mxCell>
                <mxCell id="33" value="&lt;div style=&quot;font-size: 1px&quot;&gt;&lt;font style=&quot;font-size:11.64px;font-family:Helvetica;color:#000000;direction:ltr;letter-spacing:0px;line-height:120%;opacity:1&quot;&gt;user_email&lt;/font&gt;&lt;/div&gt;" style="verticalAlign=middle;align=center;vsdxID=30;fillColor=none;gradientColor=none;shape=stencil(nZJZDsMgDERP43+Kj5Cm94gUUqxSiAjpcvuCrGahFVL4m8HPlkcYsJl0NyqQYgre3dST+qABzyAlWa08hagAW8BmcF5dvZttz37sEpnU3T3ShBf3idQhxXvrLgwashvwJKrRr/8LV6M7MIo14UDGLJWK4HuwGLyMZml+luRfPLhqaWg2MIr8DuIT3xC2Hw==);strokeColor=#F875AA;spacingTop=-3;spacingBottom=-3;spacingLeft=-3;spacingRight=-3;points=[];labelBackgroundColor=none;rounded=0;html=1;whiteSpace=wrap;" parent="31" vertex="1">
                    <mxGeometry x="30" width="133" height="30" as="geometry"/>
                </mxCell>
                <mxCell id="34" style="vsdxID=3110000;fillColor=none;gradientColor=none;strokeColor=none;spacingTop=-3;spacingBottom=-3;spacingLeft=-3;spacingRight=-3;points=[];labelBackgroundColor=none;rounded=0;html=1;whiteSpace=wrap;" parent="4" vertex="1">
                    <mxGeometry y="300" width="163" height="30" as="geometry"/>
                </mxCell>
                <mxCell id="35" style="vsdxID=32;fillColor=none;gradientColor=none;shape=stencil(nZJZDsMgDERP43+Kj5Cm94gUUqxSiAjpcvuCrGahFVL4m8HPlkcYsJl0NyqQYgre3dST+qABzyAlWa08hagAW8BmcF5dvZttz37sEpnU3T3ShBf3idQhxXvrLgwashvwJKrRr/8LV6M7MIo14UDGLJWK4HuwGLyMZml+luRfPLhqaWg2MIr8DuIT3xC2Hw==);strokeColor=#F875AA;spacingTop=-3;spacingBottom=-3;spacingLeft=-3;spacingRight=-3;points=[];labelBackgroundColor=none;rounded=0;html=1;whiteSpace=wrap;" parent="34" vertex="1">
                    <mxGeometry width="30" height="30" as="geometry"/>
                </mxCell>
                <mxCell id="36" value="&lt;div style=&quot;font-size: 1px&quot;&gt;&lt;font style=&quot;font-size:11.64px;font-family:Helvetica;color:#000000;direction:ltr;letter-spacing:0px;line-height:120%;opacity:1&quot;&gt;user_phone&lt;/font&gt;&lt;/div&gt;" style="verticalAlign=middle;align=center;vsdxID=33;fillColor=none;gradientColor=none;shape=stencil(nZJZDsMgDERP43+Kj5Cm94gUUqxSiAjpcvuCrGahFVL4m8HPlkcYsJl0NyqQYgre3dST+qABzyAlWa08hagAW8BmcF5dvZttz37sEpnU3T3ShBf3idQhxXvrLgwashvwJKrRr/8LV6M7MIo14UDGLJWK4HuwGLyMZml+luRfPLhqaWg2MIr8DuIT3xC2Hw==);strokeColor=#F875AA;spacingTop=-3;spacingBottom=-3;spacingLeft=-3;spacingRight=-3;points=[];labelBackgroundColor=none;rounded=0;html=1;whiteSpace=wrap;" parent="34" vertex="1">
                    <mxGeometry x="30" width="133" height="30" as="geometry"/>
                </mxCell>
                <mxCell id="37" style="vsdxID=3410000;fillColor=none;gradientColor=none;strokeColor=none;spacingTop=-3;spacingBottom=-3;spacingLeft=-3;spacingRight=-3;points=[];labelBackgroundColor=none;rounded=0;html=1;whiteSpace=wrap;" parent="4" vertex="1">
                    <mxGeometry y="330" width="163" height="30" as="geometry"/>
                </mxCell>
                <mxCell id="38" style="vsdxID=35;fillColor=none;gradientColor=none;shape=stencil(nZJZDsMgDERP43+Kj5Cm94gUUqxSiAjpcvuCrGahFVL4m8HPlkcYsJl0NyqQYgre3dST+qABzyAlWa08hagAW8BmcF5dvZttz37sEpnU3T3ShBf3idQhxXvrLgwashvwJKrRr/8LV6M7MIo14UDGLJWK4HuwGLyMZml+luRfPLhqaWg2MIr8DuIT3xC2Hw==);strokeColor=#F875AA;spacingTop=-3;spacingBottom=-3;spacingLeft=-3;spacingRight=-3;points=[];labelBackgroundColor=none;rounded=0;html=1;whiteSpace=wrap;" parent="37" vertex="1">
                    <mxGeometry width="30" height="30" as="geometry"/>
                </mxCell>
                <mxCell id="39" value="&lt;div style=&quot;font-size: 1px&quot;&gt;&lt;font style=&quot;font-size:11.64px;font-family:Helvetica;color:#000000;direction:ltr;letter-spacing:0px;line-height:120%;opacity:1&quot;&gt;user_address&lt;/font&gt;&lt;/div&gt;" style="verticalAlign=middle;align=center;vsdxID=36;fillColor=none;gradientColor=none;shape=stencil(nZJZDsMgDERP43+Kj5Cm94gUUqxSiAjpcvuCrGahFVL4m8HPlkcYsJl0NyqQYgre3dST+qABzyAlWa08hagAW8BmcF5dvZttz37sEpnU3T3ShBf3idQhxXvrLgwashvwJKrRr/8LV6M7MIo14UDGLJWK4HuwGLyMZml+luRfPLhqaWg2MIr8DuIT3xC2Hw==);strokeColor=#F875AA;spacingTop=-3;spacingBottom=-3;spacingLeft=-3;spacingRight=-3;points=[];labelBackgroundColor=none;rounded=0;html=1;whiteSpace=wrap;" parent="37" vertex="1">
                    <mxGeometry x="30" width="133" height="30" as="geometry"/>
                </mxCell>
                <mxCell id="40" style="vsdxID=3710000;fillColor=none;gradientColor=none;strokeColor=none;spacingTop=-3;spacingBottom=-3;spacingLeft=-3;spacingRight=-3;points=[];labelBackgroundColor=none;rounded=0;html=1;whiteSpace=wrap;" parent="4" vertex="1">
                    <mxGeometry y="360" width="163" height="30" as="geometry"/>
                </mxCell>
                <mxCell id="41" style="vsdxID=38;fillColor=none;gradientColor=none;shape=stencil(nZJZDsMgDERP43+Kj5Cm94gUUqxSiAjpcvuCrGahFVL4m8HPlkcYsJl0NyqQYgre3dST+qABzyAlWa08hagAW8BmcF5dvZttz37sEpnU3T3ShBf3idQhxXvrLgwashvwJKrRr/8LV6M7MIo14UDGLJWK4HuwGLyMZml+luRfPLhqaWg2MIr8DuIT3xC2Hw==);strokeColor=#F875AA;spacingTop=-3;spacingBottom=-3;spacingLeft=-3;spacingRight=-3;points=[];labelBackgroundColor=none;rounded=0;html=1;whiteSpace=wrap;" parent="40" vertex="1">
                    <mxGeometry width="30" height="30" as="geometry"/>
                </mxCell>
                <mxCell id="42" value="&lt;div style=&quot;font-size: 1px&quot;&gt;&lt;font style=&quot;font-size:11.64px;font-family:Helvetica;color:#000000;direction:ltr;letter-spacing:0px;line-height:120%;opacity:1&quot;&gt;user_brithday&lt;/font&gt;&lt;/div&gt;" style="verticalAlign=middle;align=center;vsdxID=39;fillColor=none;gradientColor=none;shape=stencil(nZJZDsMgDERP43+Kj5Cm94gUUqxSiAjpcvuCrGahFVL4m8HPlkcYsJl0NyqQYgre3dST+qABzyAlWa08hagAW8BmcF5dvZttz37sEpnU3T3ShBf3idQhxXvrLgwashvwJKrRr/8LV6M7MIo14UDGLJWK4HuwGLyMZml+luRfPLhqaWg2MIr8DuIT3xC2Hw==);strokeColor=#F875AA;spacingTop=-3;spacingBottom=-3;spacingLeft=-3;spacingRight=-3;points=[];labelBackgroundColor=none;rounded=0;html=1;whiteSpace=wrap;" parent="40" vertex="1">
                    <mxGeometry x="30" width="133" height="30" as="geometry"/>
                </mxCell>
                <mxCell id="43" style="vsdxID=4010000;fillColor=none;gradientColor=none;strokeColor=none;spacingTop=-3;spacingBottom=-3;spacingLeft=-3;spacingRight=-3;points=[];labelBackgroundColor=none;rounded=0;html=1;whiteSpace=wrap;" parent="4" vertex="1">
                    <mxGeometry y="390" width="163" height="30" as="geometry"/>
                </mxCell>
                <mxCell id="44" style="vsdxID=41;fillColor=none;gradientColor=none;shape=stencil(nZJZDsMgDERP43+Kj5Cm94gUUqxSiAjpcvuCrGahFVL4m8HPlkcYsJl0NyqQYgre3dST+qABzyAlWa08hagAW8BmcF5dvZttz37sEpnU3T3ShBf3idQhxXvrLgwashvwJKrRr/8LV6M7MIo14UDGLJWK4HuwGLyMZml+luRfPLhqaWg2MIr8DuIT3xC2Hw==);strokeColor=#F875AA;spacingTop=-3;spacingBottom=-3;spacingLeft=-3;spacingRight=-3;points=[];labelBackgroundColor=none;rounded=0;html=1;whiteSpace=wrap;" parent="43" vertex="1">
                    <mxGeometry width="30" height="30" as="geometry"/>
                </mxCell>
                <mxCell id="45" value="&lt;div style=&quot;font-size: 1px&quot;&gt;&lt;font style=&quot;font-size:11.64px;font-family:Helvetica;color:#000000;direction:ltr;letter-spacing:0px;line-height:120%;opacity:1&quot;&gt;user_identity&lt;/font&gt;&lt;/div&gt;" style="verticalAlign=middle;align=center;vsdxID=42;fillColor=none;gradientColor=none;shape=stencil(nZJZDsMgDERP43+Kj5Cm94gUUqxSiAjpcvuCrGahFVL4m8HPlkcYsJl0NyqQYgre3dST+qABzyAlWa08hagAW8BmcF5dvZttz37sEpnU3T3ShBf3idQhxXvrLgwashvwJKrRr/8LV6M7MIo14UDGLJWK4HuwGLyMZml+luRfPLhqaWg2MIr8DuIT3xC2Hw==);strokeColor=#F875AA;spacingTop=-3;spacingBottom=-3;spacingLeft=-3;spacingRight=-3;points=[];labelBackgroundColor=none;rounded=0;html=1;whiteSpace=wrap;" parent="43" vertex="1">
                    <mxGeometry x="30" width="133" height="30" as="geometry"/>
                </mxCell>
                <mxCell id="46" style="vsdxID=4310000;fillColor=none;gradientColor=none;strokeColor=none;spacingTop=-3;spacingBottom=-3;spacingLeft=-3;spacingRight=-3;points=[];labelBackgroundColor=none;rounded=0;html=1;whiteSpace=wrap;" parent="4" vertex="1">
                    <mxGeometry y="420" width="163" height="30" as="geometry"/>
                </mxCell>
                <mxCell id="47" style="vsdxID=44;fillColor=none;gradientColor=none;shape=stencil(nZJZDsMgDERP43+Kj5Cm94gUUqxSiAjpcvuCrGahFVL4m8HPlkcYsJl0NyqQYgre3dST+qABzyAlWa08hagAW8BmcF5dvZttz37sEpnU3T3ShBf3idQhxXvrLgwashvwJKrRr/8LV6M7MIo14UDGLJWK4HuwGLyMZml+luRfPLhqaWg2MIr8DuIT3xC2Hw==);strokeColor=#000000;spacingTop=-3;spacingBottom=-3;spacingLeft=-3;spacingRight=-3;points=[];labelBackgroundColor=none;rounded=0;html=1;whiteSpace=wrap;" parent="46" vertex="1">
                    <mxGeometry width="30" height="30" as="geometry"/>
                </mxCell>
                <mxCell id="48" value="&lt;div style=&quot;font-size: 1px&quot;&gt;&lt;font style=&quot;font-size:11.64px;font-family:Helvetica;color:#000000;direction:ltr;letter-spacing:0px;line-height:120%;opacity:1&quot;&gt;user_image&lt;/font&gt;&lt;/div&gt;" style="verticalAlign=middle;align=center;vsdxID=45;fillColor=none;gradientColor=none;shape=stencil(nZJZDsMgDERP43+Kj5Cm94gUUqxSiAjpcvuCrGahFVL4m8HPlkcYsJl0NyqQYgre3dST+qABzyAlWa08hagAW8BmcF5dvZttz37sEpnU3T3ShBf3idQhxXvrLgwashvwJKrRr/8LV6M7MIo14UDGLJWK4HuwGLyMZml+luRfPLhqaWg2MIr8DuIT3xC2Hw==);strokeColor=#000000;spacingTop=-3;spacingBottom=-3;spacingLeft=-3;spacingRight=-3;points=[];labelBackgroundColor=none;rounded=0;html=1;whiteSpace=wrap;" parent="46" vertex="1">
                    <mxGeometry x="30" width="133" height="30" as="geometry"/>
                </mxCell>
                <mxCell id="49" style="vsdxID=4610000;fillColor=none;gradientColor=none;strokeColor=none;spacingTop=-3;spacingBottom=-3;spacingLeft=-3;spacingRight=-3;points=[];labelBackgroundColor=none;rounded=0;html=1;whiteSpace=wrap;" parent="2" vertex="1">
                    <mxGeometry x="436" y="90" width="163" height="120" as="geometry"/>
                </mxCell>
                <mxCell id="50" value="class (ห้อง ตย. ป.1/1)" style="verticalAlign=bottom;align=center;vsdxID=46;fillColor=#F875AA;gradientColor=none;shape=stencil(rZPdDsIgDIWfpreG0Sx6P+d7LBlzRISF4d/bCzZqYJkZi3ctfD2cUgCsxr4ZBHA2OmtO4iZb1wPugXOpe2Gl8xFgDVh1xoqjNRfdUj40gQzR2VyDwp3qWKjg7EEZL1/pgUgl9SzJ5sGCrUbj833wtd1Jpajrz/6/e3q7WWQ1C449rHWbo1rsNojLlSd0+au7Cb3N0k6uLhpzMmIfpC/ZL9EvwPoJ);strokeColor=#F875AA;spacingTop=0;spacingBottom=-24;spacingLeft=-3;spacingRight=-3;points=[];labelBackgroundColor=none;rounded=0;whiteSpace=wrap;html=1;labelBorderColor=none;labelPosition=center;verticalLabelPosition=top;" parent="49" vertex="1">
                    <mxGeometry width="163" height="120" as="geometry"/>
                </mxCell>
                <mxCell id="51" style="vsdxID=4710000;fillColor=none;gradientColor=none;strokeColor=none;spacingTop=-3;spacingBottom=-3;spacingLeft=-3;spacingRight=-3;points=[];labelBackgroundColor=none;rounded=0;html=1;whiteSpace=wrap;" parent="49" vertex="1">
                    <mxGeometry y="30" width="163" height="30" as="geometry"/>
                </mxCell>
                <mxCell id="52" value="&lt;div style=&quot;font-size: 1px&quot;&gt;&lt;font style=&quot;font-size:11.64px;font-family:Helvetica;color:#000000;direction:ltr;letter-spacing:0px;line-height:120%;opacity:1&quot;&gt;&lt;b&gt;PK&lt;/b&gt;&lt;/font&gt;&lt;/div&gt;" style="verticalAlign=middle;align=center;vsdxID=48;fillColor=none;gradientColor=none;shape=stencil(nZJZDsMgDERP43+Kj5Cm94gUUqxSiAjpcvuCrGahFVL4m8HPlkcYsJl0NyqQYgre3dST+qABzyAlWa08hagAW8BmcF5dvZttz37sEpnU3T3ShBf3idQhxXvrLgwashvwJKrRr/8LV6M7MIo14UDGLJWK4HuwGLyMZml+luRfPLhqaWg2MIr8DuIT3xC2Hw==);strokeColor=#F875AA;spacingTop=-3;spacingBottom=-3;spacingLeft=-3;spacingRight=-3;points=[];labelBackgroundColor=none;rounded=0;html=1;whiteSpace=wrap;" parent="51" vertex="1">
                    <mxGeometry width="30" height="30" as="geometry"/>
                </mxCell>
                <mxCell id="53" value="&lt;div style=&quot;font-size: 1px&quot;&gt;&lt;font style=&quot;font-size:11.64px;font-family:Helvetica;color:#000000;direction:ltr;letter-spacing:0px;line-height:120%;opacity:1&quot;&gt;&lt;u&gt;&lt;b&gt;class_id&lt;/b&gt;&lt;/u&gt;&lt;/font&gt;&lt;/div&gt;" style="verticalAlign=middle;align=left;vsdxID=49;fillColor=none;gradientColor=none;shape=stencil(nZJZDsMgDERP43+Kj5Cm94gUUqxSiAjpcvuCrGahFVL4m8HPlkcYsJl0NyqQYgre3dST+qABzyAlWa08hagAW8BmcF5dvZttz37sEpnU3T3ShBf3idQhxXvrLgwashvwJKrRr/8LV6M7MIo14UDGLJWK4HuwGLyMZml+luRfPLhqaWg2MIr8DuIT3xC2Hw==);strokeColor=#F875AA;spacingTop=-3;spacingBottom=-3;spacingLeft=-3;spacingRight=-3;points=[];labelBackgroundColor=none;rounded=0;html=1;whiteSpace=wrap;" parent="51" vertex="1">
                    <mxGeometry x="30" width="133" height="30" as="geometry"/>
                </mxCell>
                <mxCell id="54" style="vsdxID=5010000;fillColor=none;gradientColor=none;strokeColor=none;spacingTop=-3;spacingBottom=-3;spacingLeft=-3;spacingRight=-3;points=[];labelBackgroundColor=none;rounded=0;html=1;whiteSpace=wrap;" parent="49" vertex="1">
                    <mxGeometry y="60" width="163" height="30" as="geometry"/>
                </mxCell>
                <mxCell id="55" style="vsdxID=50;fillColor=none;gradientColor=none;shape=stencil(UzV2Ls5ILEhVNTIoLinKz04tz0wpyVA1dlE1MsrMy0gtyiwBslSNXVWNndPyi1LTi/JL81Ig/IJEkEoQKze/DGRCBUSfAUiHkUElMs8NojAnMw9JoaEB2UphfKyKyVaKohDIQPgwLTMnBy5DhsdRFeL1OIa9kIghaDv1ggjFBWi2Axno6QAoBElDxq4A);strokeColor=#F875AA;spacingTop=-3;spacingBottom=-3;spacingLeft=-3;spacingRight=-3;points=[];labelBackgroundColor=none;rounded=0;html=1;whiteSpace=wrap;" parent="54" vertex="1">
                    <mxGeometry width="163" height="30" as="geometry"/>
                </mxCell>
                <mxCell id="56" value="&lt;div style=&quot;font-size: 1px&quot;&gt;&lt;font style=&quot;font-size:11.64px;font-family:Helvetica;color:#000000;direction:ltr;letter-spacing:0px;line-height:120%;opacity:1&quot;&gt;FK&lt;/font&gt;&lt;/div&gt;" style="verticalAlign=middle;align=center;vsdxID=51;fillColor=none;gradientColor=none;shape=stencil(nZJZDsMgDERP43+Kj5Cm94gUUqxSiAjpcvuCrGahFVL4m8HPlkcYsJl0NyqQYgre3dST+qABzyAlWa08hagAW8BmcF5dvZttz37sEpnU3T3ShBf3idQhxXvrLgwashvwJKrRr/8LV6M7MIo14UDGLJWK4HuwGLyMZml+luRfPLhqaWg2MIr8DuIT3xC2Hw==);strokeColor=#000000;spacingTop=-3;spacingBottom=-3;spacingLeft=-3;spacingRight=-3;points=[];labelBackgroundColor=none;rounded=0;html=1;whiteSpace=wrap;" parent="54" vertex="1">
                    <mxGeometry width="30" height="30" as="geometry"/>
                </mxCell>
                <mxCell id="57" value="&lt;div style=&quot;font-size: 1px&quot;&gt;&lt;font style=&quot;font-size:11.64px;font-family:Helvetica;color:#000000;direction:ltr;letter-spacing:0px;line-height:120%;opacity:1&quot;&gt;sec_id&lt;/font&gt;&lt;/div&gt;" style="verticalAlign=middle;align=left;vsdxID=52;fillColor=none;gradientColor=none;shape=stencil(nZJZDsMgDERP43+Kj5Cm94gUUqxSiAjpcvuCrGahFVL4m8HPlkcYsJl0NyqQYgre3dST+qABzyAlWa08hagAW8BmcF5dvZttz37sEpnU3T3ShBf3idQhxXvrLgwashvwJKrRr/8LV6M7MIo14UDGLJWK4HuwGLyMZml+luRfPLhqaWg2MIr8DuIT3xC2Hw==);strokeColor=#000000;spacingTop=-3;spacingBottom=-3;spacingLeft=-3;spacingRight=-3;points=[];labelBackgroundColor=none;rounded=0;html=1;whiteSpace=wrap;" parent="54" vertex="1">
                    <mxGeometry x="30" width="133" height="30" as="geometry"/>
                </mxCell>
                <mxCell id="58" style="vsdxID=5310000;fillColor=none;gradientColor=none;strokeColor=none;spacingTop=-3;spacingBottom=-3;spacingLeft=-3;spacingRight=-3;points=[];labelBackgroundColor=none;rounded=0;html=1;whiteSpace=wrap;" parent="49" vertex="1">
                    <mxGeometry y="90" width="163" height="30" as="geometry"/>
                </mxCell>
                <mxCell id="59" style="vsdxID=54;fillColor=none;gradientColor=none;shape=stencil(nZJZDsMgDERP43+Kj5Cm94gUUqxSiAjpcvuCrGahFVL4m8HPlkcYsJl0NyqQYgre3dST+qABzyAlWa08hagAW8BmcF5dvZttz37sEpnU3T3ShBf3idQhxXvrLgwashvwJKrRr/8LV6M7MIo14UDGLJWK4HuwGLyMZml+luRfPLhqaWg2MIr8DuIT3xC2Hw==);strokeColor=#F875AA;spacingTop=-3;spacingBottom=-3;spacingLeft=-3;spacingRight=-3;points=[];labelBackgroundColor=none;rounded=0;html=1;whiteSpace=wrap;" parent="58" vertex="1">
                    <mxGeometry width="30" height="30" as="geometry"/>
                </mxCell>
                <mxCell id="60" value="&lt;div style=&quot;font-size: 1px&quot;&gt;&lt;font style=&quot;font-size:11.64px;font-family:Helvetica;color:#000000;direction:ltr;letter-spacing:0px;line-height:120%;opacity:1&quot;&gt;class_num&lt;/font&gt;&lt;/div&gt;" style="verticalAlign=middle;align=left;vsdxID=55;fillColor=none;gradientColor=none;shape=stencil(nZJZDsMgDERP43+Kj5Cm94gUUqxSiAjpcvuCrGahFVL4m8HPlkcYsJl0NyqQYgre3dST+qABzyAlWa08hagAW8BmcF5dvZttz37sEpnU3T3ShBf3idQhxXvrLgwashvwJKrRr/8LV6M7MIo14UDGLJWK4HuwGLyMZml+luRfPLhqaWg2MIr8DuIT3xC2Hw==);strokeColor=#F875AA;spacingTop=-3;spacingBottom=-3;spacingLeft=-3;spacingRight=-3;points=[];labelBackgroundColor=none;rounded=0;html=1;whiteSpace=wrap;" parent="58" vertex="1">
                    <mxGeometry x="30" width="133" height="30" as="geometry"/>
                </mxCell>
                <mxCell id="61" style="vsdxID=5610000;fillColor=none;gradientColor=none;strokeColor=none;spacingTop=-3;spacingBottom=-3;spacingLeft=-3;spacingRight=-3;points=[];labelBackgroundColor=none;rounded=0;html=1;whiteSpace=wrap;" parent="2" vertex="1">
                    <mxGeometry y="660" width="163" height="180" as="geometry"/>
                </mxCell>
                <mxCell id="62" value="&lt;div style=&quot;font-size: 1px&quot;&gt;&lt;font style=&quot;font-size:11.64px;font-family:Helvetica;color:#000000;direction:ltr;letter-spacing:0px;line-height:120%;opacity:1&quot;&gt;&lt;b&gt;subject (วิชาเรียน)&lt;/b&gt;&lt;/font&gt;&lt;/div&gt;" style="verticalAlign=middle;align=center;vsdxID=56;fillColor=#F875AA;gradientColor=none;shape=stencil(tZPRDsIgDEW/htcFaMS9z/kfS8YcEWFhOPXvBck0QmaGxre23NucQkFQjX0zcETxaI0+8otobY9ghygVqudGWBchqBFUnTb8YPRZtSEfGq/00UlPvsM1+LB3UHwLGWEF2z4q+yCWQi2K8bKQ4K+lCYILXvCdkDLM/jz/w2Qz0zrgLHGM8QNzZm9SFgBZ/RMDwFxZadh8uppEzXJ5ylye6K3eVitaKxfEf8iVwv+D+g4=);strokeColor=#F875AA;spacingTop=-3;spacingBottom=-3;spacingLeft=-3;spacingRight=-3;points=[];labelBackgroundColor=none;rounded=0;html=1;whiteSpace=wrap;" parent="61" vertex="1">
                    <mxGeometry width="163" height="180" as="geometry"/>
                </mxCell>
                <mxCell id="63" style="vsdxID=5710000;fillColor=none;gradientColor=none;strokeColor=none;spacingTop=-3;spacingBottom=-3;spacingLeft=-3;spacingRight=-3;points=[];labelBackgroundColor=none;rounded=0;html=1;whiteSpace=wrap;" parent="61" vertex="1">
                    <mxGeometry y="30" width="163" height="30" as="geometry"/>
                </mxCell>
                <mxCell id="64" value="&lt;div style=&quot;font-size: 1px&quot;&gt;&lt;font style=&quot;font-size:11.64px;font-family:Helvetica;color:#000000;direction:ltr;letter-spacing:0px;line-height:120%;opacity:1&quot;&gt;&lt;b&gt;PK&lt;/b&gt;&lt;/font&gt;&lt;/div&gt;" style="verticalAlign=middle;align=center;vsdxID=58;fillColor=none;gradientColor=none;shape=stencil(nZJZDsMgDERP43+Kj5Cm94gUUqxSiAjpcvuCrGahFVL4m8HPlkcYsJl0NyqQYgre3dST+qABzyAlWa08hagAW8BmcF5dvZttz37sEpnU3T3ShBf3idQhxXvrLgwashvwJKrRr/8LV6M7MIo14UDGLJWK4HuwGLyMZml+luRfPLhqaWg2MIr8DuIT3xC2Hw==);strokeColor=#F875AA;spacingTop=-3;spacingBottom=-3;spacingLeft=-3;spacingRight=-3;points=[];labelBackgroundColor=none;rounded=0;html=1;whiteSpace=wrap;" parent="63" vertex="1">
                    <mxGeometry width="30" height="30" as="geometry"/>
                </mxCell>
                <mxCell id="65" value="&lt;div style=&quot;font-size: 1px&quot;&gt;&lt;font style=&quot;font-size:11.64px;font-family:Helvetica;color:#000000;direction:ltr;letter-spacing:0px;line-height:120%;opacity:1&quot;&gt;&lt;u&gt;&lt;b&gt;sub_id&lt;/b&gt;&lt;/u&gt;&lt;/font&gt;&lt;/div&gt;" style="verticalAlign=middle;align=left;vsdxID=59;fillColor=none;gradientColor=none;shape=stencil(nZJZDsMgDERP43+Kj5Cm94gUUqxSiAjpcvuCrGahFVL4m8HPlkcYsJl0NyqQYgre3dST+qABzyAlWa08hagAW8BmcF5dvZttz37sEpnU3T3ShBf3idQhxXvrLgwashvwJKrRr/8LV6M7MIo14UDGLJWK4HuwGLyMZml+luRfPLhqaWg2MIr8DuIT3xC2Hw==);strokeColor=#F875AA;spacingTop=-3;spacingBottom=-3;spacingLeft=-3;spacingRight=-3;points=[];labelBackgroundColor=none;rounded=0;html=1;whiteSpace=wrap;" parent="63" vertex="1">
                    <mxGeometry x="30" width="133" height="30" as="geometry"/>
                </mxCell>
                <mxCell id="66" style="vsdxID=6010000;fillColor=none;gradientColor=none;strokeColor=none;spacingTop=-3;spacingBottom=-3;spacingLeft=-3;spacingRight=-3;points=[];labelBackgroundColor=none;rounded=0;html=1;whiteSpace=wrap;" parent="61" vertex="1">
                    <mxGeometry y="60" width="163" height="30" as="geometry"/>
                </mxCell>
                <mxCell id="67" style="vsdxID=60;fillColor=none;gradientColor=none;shape=stencil(UzV2Ls5ILEhVNTIoLinKz04tz0wpyVA1dlE1MsrMy0gtyiwBslSNXVWNndPyi1LTi/JL81Ig/IJEkEoQKze/DGRCBUSfAUiHkUElMs8NojAnMw9JoaEB2UphfKyKyVaKohDIQPgwLTMnBy5DhsdRFeL1OIa9kIghaDv1ggjFBWi2Axno6QAoBElDxq4A);strokeColor=#F875AA;spacingTop=-3;spacingBottom=-3;spacingLeft=-3;spacingRight=-3;points=[];labelBackgroundColor=none;rounded=0;html=1;whiteSpace=wrap;" parent="66" vertex="1">
                    <mxGeometry width="163" height="30" as="geometry"/>
                </mxCell>
                <mxCell id="68" value="&lt;div style=&quot;font-size: 1px&quot;&gt;&lt;font style=&quot;font-size:11.64px;font-family:Helvetica;color:#000000;direction:ltr;letter-spacing:0px;line-height:120%;opacity:1&quot;&gt;FK&lt;/font&gt;&lt;/div&gt;" style="verticalAlign=middle;align=center;vsdxID=61;fillColor=none;gradientColor=none;shape=stencil(nZJZDsMgDERP43+Kj5Cm94gUUqxSiAjpcvuCrGahFVL4m8HPlkcYsJl0NyqQYgre3dST+qABzyAlWa08hagAW8BmcF5dvZttz37sEpnU3T3ShBf3idQhxXvrLgwashvwJKrRr/8LV6M7MIo14UDGLJWK4HuwGLyMZml+luRfPLhqaWg2MIr8DuIT3xC2Hw==);strokeColor=#F875AA;spacingTop=-3;spacingBottom=-3;spacingLeft=-3;spacingRight=-3;points=[];labelBackgroundColor=none;rounded=0;html=1;whiteSpace=wrap;" parent="66" vertex="1">
                    <mxGeometry width="30" height="30" as="geometry"/>
                </mxCell>
                <mxCell id="69" value="&lt;div style=&quot;font-size: 1px&quot;&gt;&lt;font style=&quot;font-size:11.64px;font-family:Helvetica;color:#000000;direction:ltr;letter-spacing:0px;line-height:120%;opacity:1&quot;&gt;room_id&lt;/font&gt;&lt;/div&gt;" style="verticalAlign=middle;align=center;vsdxID=62;fillColor=none;gradientColor=none;shape=stencil(nZJZDsMgDERP43+Kj5Cm94gUUqxSiAjpcvuCrGahFVL4m8HPlkcYsJl0NyqQYgre3dST+qABzyAlWa08hagAW8BmcF5dvZttz37sEpnU3T3ShBf3idQhxXvrLgwashvwJKrRr/8LV6M7MIo14UDGLJWK4HuwGLyMZml+luRfPLhqaWg2MIr8DuIT3xC2Hw==);strokeColor=#F875AA;spacingTop=-3;spacingBottom=-3;spacingLeft=-3;spacingRight=-3;points=[];labelBackgroundColor=none;rounded=0;html=1;whiteSpace=wrap;" parent="66" vertex="1">
                    <mxGeometry x="30" width="133" height="30" as="geometry"/>
                </mxCell>
                <mxCell id="70" style="vsdxID=6310000;fillColor=none;gradientColor=none;strokeColor=none;spacingTop=-3;spacingBottom=-3;spacingLeft=-3;spacingRight=-3;points=[];labelBackgroundColor=none;rounded=0;html=1;whiteSpace=wrap;" parent="61" vertex="1">
                    <mxGeometry y="90" width="163" height="30" as="geometry"/>
                </mxCell>
                <mxCell id="71" style="vsdxID=64;fillColor=none;gradientColor=none;shape=stencil(nZJZDsMgDERP43+Kj5Cm94gUUqxSiAjpcvuCrGahFVL4m8HPlkcYsJl0NyqQYgre3dST+qABzyAlWa08hagAW8BmcF5dvZttz37sEpnU3T3ShBf3idQhxXvrLgwashvwJKrRr/8LV6M7MIo14UDGLJWK4HuwGLyMZml+luRfPLhqaWg2MIr8DuIT3xC2Hw==);strokeColor=#F875AA;spacingTop=-3;spacingBottom=-3;spacingLeft=-3;spacingRight=-3;points=[];labelBackgroundColor=none;rounded=0;html=1;whiteSpace=wrap;" parent="70" vertex="1">
                    <mxGeometry width="30" height="30" as="geometry"/>
                </mxCell>
                <mxCell id="72" value="&lt;div style=&quot;font-size: 1px&quot;&gt;&lt;font style=&quot;font-size:11.64px;font-family:Helvetica;color:#000000;direction:ltr;letter-spacing:0px;line-height:120%;opacity:1&quot;&gt;sub_name&lt;/font&gt;&lt;/div&gt;" style="verticalAlign=middle;align=left;vsdxID=65;fillColor=none;gradientColor=none;shape=stencil(nZJZDsMgDERP43+Kj5Cm94gUUqxSiAjpcvuCrGahFVL4m8HPlkcYsJl0NyqQYgre3dST+qABzyAlWa08hagAW8BmcF5dvZttz37sEpnU3T3ShBf3idQhxXvrLgwashvwJKrRr/8LV6M7MIo14UDGLJWK4HuwGLyMZml+luRfPLhqaWg2MIr8DuIT3xC2Hw==);strokeColor=#F875AA;spacingTop=-3;spacingBottom=-3;spacingLeft=-3;spacingRight=-3;points=[];labelBackgroundColor=none;rounded=0;html=1;whiteSpace=wrap;" parent="70" vertex="1">
                    <mxGeometry x="30" width="133" height="30" as="geometry"/>
                </mxCell>
                <mxCell id="73" style="vsdxID=6610000;fillColor=none;gradientColor=none;strokeColor=none;spacingTop=-3;spacingBottom=-3;spacingLeft=-3;spacingRight=-3;points=[];labelBackgroundColor=none;rounded=0;html=1;whiteSpace=wrap;" parent="61" vertex="1">
                    <mxGeometry y="120" width="163" height="30" as="geometry"/>
                </mxCell>
                <mxCell id="74" style="vsdxID=67;fillColor=none;gradientColor=none;shape=stencil(nZJZDsMgDERP43+Kj5Cm94gUUqxSiAjpcvuCrGahFVL4m8HPlkcYsJl0NyqQYgre3dST+qABzyAlWa08hagAW8BmcF5dvZttz37sEpnU3T3ShBf3idQhxXvrLgwashvwJKrRr/8LV6M7MIo14UDGLJWK4HuwGLyMZml+luRfPLhqaWg2MIr8DuIT3xC2Hw==);strokeColor=#000000;spacingTop=-3;spacingBottom=-3;spacingLeft=-3;spacingRight=-3;points=[];labelBackgroundColor=none;rounded=0;html=1;whiteSpace=wrap;" parent="73" vertex="1">
                    <mxGeometry width="30" height="30" as="geometry"/>
                </mxCell>
                <mxCell id="75" value="&lt;div style=&quot;font-size: 1px&quot;&gt;&lt;font style=&quot;font-size:11.64px;font-family:Helvetica;color:#000000;direction:ltr;letter-spacing:0px;line-height:120%;opacity:1&quot;&gt;sub_credit&lt;/font&gt;&lt;/div&gt;" style="verticalAlign=middle;align=center;vsdxID=68;fillColor=none;gradientColor=none;shape=stencil(nZJZDsMgDERP43+Kj5Cm94gUUqxSiAjpcvuCrGahFVL4m8HPlkcYsJl0NyqQYgre3dST+qABzyAlWa08hagAW8BmcF5dvZttz37sEpnU3T3ShBf3idQhxXvrLgwashvwJKrRr/8LV6M7MIo14UDGLJWK4HuwGLyMZml+luRfPLhqaWg2MIr8DuIT3xC2Hw==);strokeColor=#000000;spacingTop=-3;spacingBottom=-3;spacingLeft=-3;spacingRight=-3;points=[];labelBackgroundColor=none;rounded=0;html=1;whiteSpace=wrap;" parent="73" vertex="1">
                    <mxGeometry x="30" width="133" height="30" as="geometry"/>
                </mxCell>
                <mxCell id="76" style="vsdxID=6910000;fillColor=none;gradientColor=none;strokeColor=none;spacingTop=-3;spacingBottom=-3;spacingLeft=-3;spacingRight=-3;points=[];labelBackgroundColor=none;rounded=0;html=1;whiteSpace=wrap;" parent="61" vertex="1">
                    <mxGeometry y="150" width="163" height="30" as="geometry"/>
                </mxCell>
                <mxCell id="77" value="&lt;div style=&quot;font-size: 1px&quot;&gt;&lt;font style=&quot;font-size:11.64px;font-family:Helvetica;color:#000000;direction:ltr;letter-spacing:0px;line-height:120%;opacity:1&quot;&gt;FK&lt;/font&gt;&lt;/div&gt;" style="verticalAlign=middle;align=center;vsdxID=70;fillColor=none;gradientColor=none;shape=stencil(nZJZDsMgDERP43+Kj5Cm94gUUqxSiAjpcvuCrGahFVL4m8HPlkcYsJl0NyqQYgre3dST+qABzyAlWa08hagAW8BmcF5dvZttz37sEpnU3T3ShBf3idQhxXvrLgwashvwJKrRr/8LV6M7MIo14UDGLJWK4HuwGLyMZml+luRfPLhqaWg2MIr8DuIT3xC2Hw==);strokeColor=#F875AA;spacingTop=-3;spacingBottom=-3;spacingLeft=-3;spacingRight=-3;points=[];labelBackgroundColor=none;rounded=0;html=1;whiteSpace=wrap;" parent="76" vertex="1">
                    <mxGeometry width="30" height="30" as="geometry"/>
                </mxCell>
                <mxCell id="78" value="&lt;div style=&quot;font-size: 1px&quot;&gt;&lt;font style=&quot;font-size:11.64px;font-family:Helvetica;color:#000000;direction:ltr;letter-spacing:0px;line-height:120%;opacity:1&quot;&gt;major_id&lt;/font&gt;&lt;/div&gt;" style="verticalAlign=middle;align=center;vsdxID=71;fillColor=none;gradientColor=none;shape=stencil(nZJZDsMgDERP43+Kj5Cm94gUUqxSiAjpcvuCrGahFVL4m8HPlkcYsJl0NyqQYgre3dST+qABzyAlWa08hagAW8BmcF5dvZttz37sEpnU3T3ShBf3idQhxXvrLgwashvwJKrRr/8LV6M7MIo14UDGLJWK4HuwGLyMZml+luRfPLhqaWg2MIr8DuIT3xC2Hw==);strokeColor=#F875AA;spacingTop=-3;spacingBottom=-3;spacingLeft=-3;spacingRight=-3;points=[];labelBackgroundColor=none;rounded=0;html=1;whiteSpace=wrap;" parent="76" vertex="1">
                    <mxGeometry x="30" width="133" height="30" as="geometry"/>
                </mxCell>
                <mxCell id="79" style="vsdxID=7210000;fillColor=none;gradientColor=none;strokeColor=none;spacingTop=-3;spacingBottom=-3;spacingLeft=-3;spacingRight=-3;points=[];labelBackgroundColor=none;rounded=0;html=1;whiteSpace=wrap;" parent="2" vertex="1">
                    <mxGeometry x="218" width="163" height="90" as="geometry"/>
                </mxCell>
                <mxCell id="80" value="&lt;div style=&quot;font-size: 1px&quot;&gt;&lt;font style=&quot;font-size:11.64px;font-family:Helvetica;color:#000000;direction:ltr;letter-spacing:0px;line-height:120%;opacity:1&quot;&gt;&lt;b&gt;section (ระดับชั้น)&lt;/b&gt;&lt;/font&gt;&lt;/div&gt;" style="verticalAlign=middle;align=center;vsdxID=72;fillColor=#F875AA;gradientColor=none;shape=stencil(tVLLDsIgEPyavTaUTdB7rf/RpFSICA3F198LkmqENCkab7O7M5vZB2AziW7kQMnkrDnyq+ydANwBpVILbqXzCLAFbAZj+cGas+5jPHaBGdDJXEKHW9SRoKDkHiPECvGZ2UeyknqRTJaJNfmamlnw4G1+kErF2V/1P0w2e1pluIic2fjBc2HvejuX1/bPBIxVbFMiSHbzccrkjB6kP+tT8d+xfQA=);strokeColor=#F875AA;spacingTop=-3;spacingBottom=-3;spacingLeft=-3;spacingRight=-3;points=[];labelBackgroundColor=none;rounded=0;html=1;whiteSpace=wrap;" parent="79" vertex="1">
                    <mxGeometry width="163" height="90" as="geometry"/>
                </mxCell>
                <mxCell id="81" style="vsdxID=7310000;fillColor=none;gradientColor=none;strokeColor=none;spacingTop=-3;spacingBottom=-3;spacingLeft=-3;spacingRight=-3;points=[];labelBackgroundColor=none;rounded=0;html=1;whiteSpace=wrap;" parent="79" vertex="1">
                    <mxGeometry y="30" width="163" height="30" as="geometry"/>
                </mxCell>
                <mxCell id="82" style="vsdxID=73;fillColor=none;gradientColor=none;shape=stencil(UzV2Ls5ILEhVNTIoLinKz04tz0wpyVA1dlE1MsrMy0gtyiwBslSNXVWNndPyi1LTi/JL81Ig/IJEkEoQKze/DGRCBUSfAUiHkUElMs8NojAnMw9JoaEB2UphfKyKyVaKohDIQPgwLTMnBy5DhsdRFeL1OIa9kIghaDv1ggjFBWi2Axno6QAoBElDxq4A);strokeColor=#F875AA;spacingTop=-3;spacingBottom=-3;spacingLeft=-3;spacingRight=-3;points=[];labelBackgroundColor=none;rounded=0;html=1;whiteSpace=wrap;" parent="81" vertex="1">
                    <mxGeometry width="163" height="30" as="geometry"/>
                </mxCell>
                <mxCell id="83" value="&lt;div style=&quot;font-size: 1px&quot;&gt;&lt;font style=&quot;font-size:11.64px;font-family:Helvetica;color:#000000;direction:ltr;letter-spacing:0px;line-height:120%;opacity:1&quot;&gt;&lt;b&gt;PK&lt;/b&gt;&lt;/font&gt;&lt;/div&gt;" style="verticalAlign=middle;align=center;vsdxID=74;fillColor=none;gradientColor=none;shape=stencil(nZJZDsMgDERP43+Kj5Cm94gUUqxSiAjpcvuCrGahFVL4m8HPlkcYsJl0NyqQYgre3dST+qABzyAlWa08hagAW8BmcF5dvZttz37sEpnU3T3ShBf3idQhxXvrLgwashvwJKrRr/8LV6M7MIo14UDGLJWK4HuwGLyMZml+luRfPLhqaWg2MIr8DuIT3xC2Hw==);strokeColor=#F875AA;spacingTop=-3;spacingBottom=-3;spacingLeft=-3;spacingRight=-3;points=[];labelBackgroundColor=none;rounded=0;html=1;whiteSpace=wrap;" parent="81" vertex="1">
                    <mxGeometry width="30" height="30" as="geometry"/>
                </mxCell>
                <mxCell id="84" value="&lt;div style=&quot;font-size: 1px&quot;&gt;&lt;font style=&quot;font-size:11.64px;font-family:Helvetica;color:#000000;direction:ltr;letter-spacing:0px;line-height:120%;opacity:1&quot;&gt;&lt;u&gt;&lt;b&gt;sec_id&lt;/b&gt;&lt;/u&gt;&lt;/font&gt;&lt;/div&gt;" style="verticalAlign=middle;align=left;vsdxID=75;fillColor=none;gradientColor=none;shape=stencil(nZJZDsMgDERP43+Kj5Cm94gUUqxSiAjpcvuCrGahFVL4m8HPlkcYsJl0NyqQYgre3dST+qABzyAlWa08hagAW8BmcF5dvZttz37sEpnU3T3ShBf3idQhxXvrLgwashvwJKrRr/8LV6M7MIo14UDGLJWK4HuwGLyMZml+luRfPLhqaWg2MIr8DuIT3xC2Hw==);strokeColor=#F875AA;spacingTop=-3;spacingBottom=-3;spacingLeft=-3;spacingRight=-3;points=[];labelBackgroundColor=none;rounded=0;html=1;whiteSpace=wrap;" parent="81" vertex="1">
                    <mxGeometry x="30" width="133" height="30" as="geometry"/>
                </mxCell>
                <mxCell id="85" style="vsdxID=7610000;fillColor=none;gradientColor=none;strokeColor=none;spacingTop=-3;spacingBottom=-3;spacingLeft=-3;spacingRight=-3;points=[];labelBackgroundColor=none;rounded=0;html=1;whiteSpace=wrap;" parent="79" vertex="1">
                    <mxGeometry y="60" width="163" height="30" as="geometry"/>
                </mxCell>
                <mxCell id="86" style="vsdxID=77;fillColor=none;gradientColor=none;shape=stencil(nZJZDsMgDERP43+Kj5Cm94gUUqxSiAjpcvuCrGahFVL4m8HPlkcYsJl0NyqQYgre3dST+qABzyAlWa08hagAW8BmcF5dvZttz37sEpnU3T3ShBf3idQhxXvrLgwashvwJKrRr/8LV6M7MIo14UDGLJWK4HuwGLyMZml+luRfPLhqaWg2MIr8DuIT3xC2Hw==);strokeColor=#F875AA;spacingTop=-3;spacingBottom=-3;spacingLeft=-3;spacingRight=-3;points=[];labelBackgroundColor=none;rounded=0;html=1;whiteSpace=wrap;" parent="85" vertex="1">
                    <mxGeometry width="30" height="30" as="geometry"/>
                </mxCell>
                <mxCell id="87" value="&lt;div style=&quot;font-size: 1px&quot;&gt;&lt;font style=&quot;font-size:11.64px;font-family:Helvetica;color:#000000;direction:ltr;letter-spacing:0px;line-height:120%;opacity:1&quot;&gt;sec_type&lt;/font&gt;&lt;/div&gt;" style="verticalAlign=middle;align=left;vsdxID=78;fillColor=none;gradientColor=none;shape=stencil(nZJZDsMgDERP43+Kj5Cm94gUUqxSiAjpcvuCrGahFVL4m8HPlkcYsJl0NyqQYgre3dST+qABzyAlWa08hagAW8BmcF5dvZttz37sEpnU3T3ShBf3idQhxXvrLgwashvwJKrRr/8LV6M7MIo14UDGLJWK4HuwGLyMZml+luRfPLhqaWg2MIr8DuIT3xC2Hw==);strokeColor=#F875AA;spacingTop=-3;spacingBottom=-3;spacingLeft=-3;spacingRight=-3;points=[];labelBackgroundColor=none;rounded=0;html=1;whiteSpace=wrap;" parent="85" vertex="1">
                    <mxGeometry x="30" width="133" height="30" as="geometry"/>
                </mxCell>
                <mxCell id="88" style="vsdxID=7910000;fillColor=none;gradientColor=none;strokeColor=none;spacingTop=-3;spacingBottom=-3;spacingLeft=-3;spacingRight=-3;points=[];labelBackgroundColor=none;rounded=0;html=1;whiteSpace=wrap;" parent="2" vertex="1">
                    <mxGeometry x="210" y="730" width="163" height="90" as="geometry"/>
                </mxCell>
                <mxCell id="89" value="&lt;div style=&quot;font-size: 1px&quot;&gt;&lt;font style=&quot;font-size:11.64px;font-family:Helvetica;color:#000000;direction:ltr;letter-spacing:0px;line-height:120%;opacity:1&quot;&gt;&lt;b&gt;major (วิชาหลัก)&lt;/b&gt;&lt;/font&gt;&lt;/div&gt;" style="verticalAlign=middle;align=center;vsdxID=79;fillColor=#F875AA;gradientColor=none;shape=stencil(tVLLDsIgEPyavTaUTdB7rf/RpFSICA3F198LkmqENCkab7O7M5vZB2AziW7kQMnkrDnyq+ydANwBpVILbqXzCLAFbAZj+cGas+5jPHaBGdDJXEKHW9SRoKDkHiPECvGZ2UeyknqRTJaJNfmamlnw4G1+kErF2V/1P0w2e1pluIic2fjBc2HvejuX1/bPBIxVbFMiSHbzccrkjB6kP+tT8d+xfQA=);strokeColor=#F875AA;spacingTop=-3;spacingBottom=-3;spacingLeft=-3;spacingRight=-3;points=[];labelBackgroundColor=none;rounded=0;html=1;whiteSpace=wrap;" parent="88" vertex="1">
                    <mxGeometry width="163" height="90" as="geometry"/>
                </mxCell>
                <mxCell id="90" style="vsdxID=8010000;fillColor=none;gradientColor=none;strokeColor=none;spacingTop=-3;spacingBottom=-3;spacingLeft=-3;spacingRight=-3;points=[];labelBackgroundColor=none;rounded=0;html=1;whiteSpace=wrap;" parent="88" vertex="1">
                    <mxGeometry y="30" width="163" height="30" as="geometry"/>
                </mxCell>
                <mxCell id="91" style="vsdxID=80;fillColor=none;gradientColor=none;shape=stencil(UzV2Ls5ILEhVNTIoLinKz04tz0wpyVA1dlE1MsrMy0gtyiwBslSNXVWNndPyi1LTi/JL81Ig/IJEkEoQKze/DGRCBUSfAUiHkUElMs8NojAnMw9JoaEB2UphfKyKyVaKohDIQPgwLTMnBy5DhsdRFeL1OIa9kIghaDv1ggjFBWi2Axno6QAoBElDxq4A);strokeColor=#F875AA;spacingTop=-3;spacingBottom=-3;spacingLeft=-3;spacingRight=-3;points=[];labelBackgroundColor=none;rounded=0;html=1;whiteSpace=wrap;" parent="90" vertex="1">
                    <mxGeometry width="163" height="30" as="geometry"/>
                </mxCell>
                <mxCell id="92" value="&lt;div style=&quot;font-size: 1px&quot;&gt;&lt;font style=&quot;font-size:11.64px;font-family:Helvetica;color:#000000;direction:ltr;letter-spacing:0px;line-height:120%;opacity:1&quot;&gt;FK&lt;/font&gt;&lt;/div&gt;" style="verticalAlign=middle;align=center;vsdxID=81;fillColor=none;gradientColor=none;shape=stencil(nZJZDsMgDERP43+Kj5Cm94gUUqxSiAjpcvuCrGahFVL4m8HPlkcYsJl0NyqQYgre3dST+qABzyAlWa08hagAW8BmcF5dvZttz37sEpnU3T3ShBf3idQhxXvrLgwashvwJKrRr/8LV6M7MIo14UDGLJWK4HuwGLyMZml+luRfPLhqaWg2MIr8DuIT3xC2Hw==);strokeColor=#F875AA;spacingTop=-3;spacingBottom=-3;spacingLeft=-3;spacingRight=-3;points=[];labelBackgroundColor=none;rounded=0;html=1;whiteSpace=wrap;" parent="90" vertex="1">
                    <mxGeometry width="30" height="30" as="geometry"/>
                </mxCell>
                <mxCell id="93" value="&lt;div style=&quot;font-size: 1px&quot;&gt;&lt;font style=&quot;font-size:11.64px;font-family:Helvetica;color:#000000;direction:ltr;letter-spacing:0px;line-height:120%;opacity:1&quot;&gt;major_id&lt;/font&gt;&lt;/div&gt;" style="verticalAlign=middle;align=center;vsdxID=82;fillColor=none;gradientColor=none;shape=stencil(nZJZDsMgDERP43+Kj5Cm94gUUqxSiAjpcvuCrGahFVL4m8HPlkcYsJl0NyqQYgre3dST+qABzyAlWa08hagAW8BmcF5dvZttz37sEpnU3T3ShBf3idQhxXvrLgwashvwJKrRr/8LV6M7MIo14UDGLJWK4HuwGLyMZml+luRfPLhqaWg2MIr8DuIT3xC2Hw==);strokeColor=#F875AA;spacingTop=-3;spacingBottom=-3;spacingLeft=-3;spacingRight=-3;points=[];labelBackgroundColor=none;rounded=0;html=1;whiteSpace=wrap;" parent="90" vertex="1">
                    <mxGeometry x="30" width="133" height="30" as="geometry"/>
                </mxCell>
                <mxCell id="94" style="vsdxID=8310000;fillColor=none;gradientColor=none;strokeColor=none;spacingTop=-3;spacingBottom=-3;spacingLeft=-3;spacingRight=-3;points=[];labelBackgroundColor=none;rounded=0;html=1;whiteSpace=wrap;" parent="88" vertex="1">
                    <mxGeometry y="60" width="163" height="30" as="geometry"/>
                </mxCell>
                <mxCell id="95" style="vsdxID=84;fillColor=none;gradientColor=none;shape=stencil(nZJZDsMgDERP43+Kj5Cm94gUUqxSiAjpcvuCrGahFVL4m8HPlkcYsJl0NyqQYgre3dST+qABzyAlWa08hagAW8BmcF5dvZttz37sEpnU3T3ShBf3idQhxXvrLgwashvwJKrRr/8LV6M7MIo14UDGLJWK4HuwGLyMZml+luRfPLhqaWg2MIr8DuIT3xC2Hw==);strokeColor=#F875AA;spacingTop=-3;spacingBottom=-3;spacingLeft=-3;spacingRight=-3;points=[];labelBackgroundColor=none;rounded=0;html=1;whiteSpace=wrap;" parent="94" vertex="1">
                    <mxGeometry width="30" height="30" as="geometry"/>
                </mxCell>
                <mxCell id="96" value="&lt;div style=&quot;font-size: 1px&quot;&gt;&lt;font style=&quot;font-size:11.64px;font-family:Helvetica;color:#000000;direction:ltr;letter-spacing:0px;line-height:120%;opacity:1&quot;&gt;major_name&lt;/font&gt;&lt;/div&gt;" style="verticalAlign=middle;align=left;vsdxID=85;fillColor=none;gradientColor=none;shape=stencil(nZJZDsMgDERP43+Kj5Cm94gUUqxSiAjpcvuCrGahFVL4m8HPlkcYsJl0NyqQYgre3dST+qABzyAlWa08hagAW8BmcF5dvZttz37sEpnU3T3ShBf3idQhxXvrLgwashvwJKrRr/8LV6M7MIo14UDGLJWK4HuwGLyMZml+luRfPLhqaWg2MIr8DuIT3xC2Hw==);strokeColor=#F875AA;spacingTop=-3;spacingBottom=-3;spacingLeft=-3;spacingRight=-3;points=[];labelBackgroundColor=none;rounded=0;html=1;whiteSpace=wrap;" parent="94" vertex="1">
                    <mxGeometry x="30" width="133" height="30" as="geometry"/>
                </mxCell>
                <mxCell id="97" style="vsdxID=8610000;fillColor=none;gradientColor=none;strokeColor=none;spacingTop=-3;spacingBottom=-3;spacingLeft=-3;spacingRight=-3;points=[];labelBackgroundColor=none;rounded=0;html=1;whiteSpace=wrap;" parent="2" vertex="1">
                    <mxGeometry y="490" width="163" height="150" as="geometry"/>
                </mxCell>
                <mxCell id="98" value="&lt;div style=&quot;font-size: 1px&quot;&gt;&lt;font style=&quot;font-size:11.64px;font-family:Helvetica;color:#000000;direction:ltr;letter-spacing:0px;line-height:120%;opacity:1&quot;&gt;&lt;b&gt;room (ห้องเรียน)&lt;/b&gt;&lt;/font&gt;&lt;/div&gt;" style="verticalAlign=middle;align=center;vsdxID=86;fillColor=#F875AA;gradientColor=none;shape=stencil(rZPdDsIgDIWfpreGUWN2P+d7LBkTIsLC8O/thdSfgNGMxbtT+NqckgNgM8luFMDZ5J09iIvqvQTcAufKSOGUDwqwBWwG68Te2ZPpqR67SEZ1tOc44Up9LHZwdqPqUe6I1Mp8JX+AFVuMpmwQb9uD0pq2ft3/e6enm1lWi+DUw1K3JVOreoU4f/IHvS6iN0V0XURnD52EIgtEEHnuwxH9GWzv);strokeColor=#F875AA;spacingTop=-3;spacingBottom=-3;spacingLeft=-3;spacingRight=-3;points=[];labelBackgroundColor=none;rounded=0;html=1;whiteSpace=wrap;" parent="97" vertex="1">
                    <mxGeometry width="163" height="150" as="geometry"/>
                </mxCell>
                <mxCell id="99" style="vsdxID=8710000;fillColor=none;gradientColor=none;strokeColor=none;spacingTop=-3;spacingBottom=-3;spacingLeft=-3;spacingRight=-3;points=[];labelBackgroundColor=none;rounded=0;html=1;whiteSpace=wrap;" parent="97" vertex="1">
                    <mxGeometry y="30" width="163" height="30" as="geometry"/>
                </mxCell>
                <mxCell id="100" value="&lt;div style=&quot;font-size: 1px&quot;&gt;&lt;font style=&quot;font-size:11.64px;font-family:Helvetica;color:#000000;direction:ltr;letter-spacing:0px;line-height:120%;opacity:1&quot;&gt;&lt;b&gt;PK&lt;/b&gt;&lt;/font&gt;&lt;/div&gt;" style="verticalAlign=middle;align=center;vsdxID=88;fillColor=none;gradientColor=none;shape=stencil(nZJZDsMgDERP43+Kj5Cm94gUUqxSiAjpcvuCrGahFVL4m8HPlkcYsJl0NyqQYgre3dST+qABzyAlWa08hagAW8BmcF5dvZttz37sEpnU3T3ShBf3idQhxXvrLgwashvwJKrRr/8LV6M7MIo14UDGLJWK4HuwGLyMZml+luRfPLhqaWg2MIr8DuIT3xC2Hw==);strokeColor=#F875AA;spacingTop=-3;spacingBottom=-3;spacingLeft=-3;spacingRight=-3;points=[];labelBackgroundColor=none;rounded=0;html=1;whiteSpace=wrap;" parent="99" vertex="1">
                    <mxGeometry width="30" height="30" as="geometry"/>
                </mxCell>
                <mxCell id="101" value="&lt;div style=&quot;font-size: 1px&quot;&gt;&lt;font style=&quot;font-size:11.64px;font-family:Helvetica;color:#000000;direction:ltr;letter-spacing:0px;line-height:120%;opacity:1&quot;&gt;&lt;u&gt;&lt;b&gt;room_id&lt;/b&gt;&lt;/u&gt;&lt;/font&gt;&lt;/div&gt;" style="verticalAlign=middle;align=left;vsdxID=89;fillColor=none;gradientColor=none;shape=stencil(nZJZDsMgDERP43+Kj5Cm94gUUqxSiAjpcvuCrGahFVL4m8HPlkcYsJl0NyqQYgre3dST+qABzyAlWa08hagAW8BmcF5dvZttz37sEpnU3T3ShBf3idQhxXvrLgwashvwJKrRr/8LV6M7MIo14UDGLJWK4HuwGLyMZml+luRfPLhqaWg2MIr8DuIT3xC2Hw==);strokeColor=#F875AA;spacingTop=-3;spacingBottom=-3;spacingLeft=-3;spacingRight=-3;points=[];labelBackgroundColor=none;rounded=0;html=1;whiteSpace=wrap;" parent="99" vertex="1">
                    <mxGeometry x="30" width="133" height="30" as="geometry"/>
                </mxCell>
                <mxCell id="102" style="vsdxID=9010000;fillColor=none;gradientColor=none;strokeColor=none;spacingTop=-3;spacingBottom=-3;spacingLeft=-3;spacingRight=-3;points=[];labelBackgroundColor=none;rounded=0;html=1;whiteSpace=wrap;" parent="97" vertex="1">
                    <mxGeometry y="60" width="163" height="30" as="geometry"/>
                </mxCell>
                <mxCell id="103" style="vsdxID=90;fillColor=none;gradientColor=none;shape=stencil(UzV2Ls5ILEhVNTIoLinKz04tz0wpyVA1dlE1MsrMy0gtyiwBslSNXVWNndPyi1LTi/JL81Ig/IJEkEoQKze/DGRCBUSfAUiHkUElMs8NojAnMw9JoaEB2UphfKyKyVaKohDIQPgwLTMnBy5DhsdRFeL1OIa9kIghaDv1ggjFBWi2Axno6QAoBElDxq4A);strokeColor=#F875AA;spacingTop=-3;spacingBottom=-3;spacingLeft=-3;spacingRight=-3;points=[];labelBackgroundColor=none;rounded=0;html=1;whiteSpace=wrap;" parent="102" vertex="1">
                    <mxGeometry width="163" height="30" as="geometry"/>
                </mxCell>
                <mxCell id="104" value="&lt;div style=&quot;font-size: 1px&quot;&gt;&lt;font style=&quot;font-size:11.64px;font-family:Helvetica;color:#000000;direction:ltr;letter-spacing:0px;line-height:120%;opacity:1&quot;&gt;FK&lt;/font&gt;&lt;/div&gt;" style="verticalAlign=middle;align=center;vsdxID=91;fillColor=none;gradientColor=none;shape=stencil(nZJZDsMgDERP43+Kj5Cm94gUUqxSiAjpcvuCrGahFVL4m8HPlkcYsJl0NyqQYgre3dST+qABzyAlWa08hagAW8BmcF5dvZttz37sEpnU3T3ShBf3idQhxXvrLgwashvwJKrRr/8LV6M7MIo14UDGLJWK4HuwGLyMZml+luRfPLhqaWg2MIr8DuIT3xC2Hw==);strokeColor=#F875AA;spacingTop=-3;spacingBottom=-3;spacingLeft=-3;spacingRight=-3;points=[];labelBackgroundColor=none;rounded=0;html=1;whiteSpace=wrap;" parent="102" vertex="1">
                    <mxGeometry width="30" height="30" as="geometry"/>
                </mxCell>
                <mxCell id="105" value="&lt;div style=&quot;font-size: 1px&quot;&gt;&lt;font style=&quot;font-size:11.64px;font-family:Helvetica;color:#000000;direction:ltr;letter-spacing:0px;line-height:120%;opacity:1&quot;&gt;build_id&lt;/font&gt;&lt;/div&gt;" style="verticalAlign=middle;align=center;vsdxID=92;fillColor=none;gradientColor=none;shape=stencil(nZJZDsMgDERP43+Kj5Cm94gUUqxSiAjpcvuCrGahFVL4m8HPlkcYsJl0NyqQYgre3dST+qABzyAlWa08hagAW8BmcF5dvZttz37sEpnU3T3ShBf3idQhxXvrLgwashvwJKrRr/8LV6M7MIo14UDGLJWK4HuwGLyMZml+luRfPLhqaWg2MIr8DuIT3xC2Hw==);strokeColor=#F875AA;spacingTop=-3;spacingBottom=-3;spacingLeft=-3;spacingRight=-3;points=[];labelBackgroundColor=none;rounded=0;html=1;whiteSpace=wrap;" parent="102" vertex="1">
                    <mxGeometry x="30" width="133" height="30" as="geometry"/>
                </mxCell>
                <mxCell id="106" style="vsdxID=9310000;fillColor=none;gradientColor=none;strokeColor=none;spacingTop=-3;spacingBottom=-3;spacingLeft=-3;spacingRight=-3;points=[];labelBackgroundColor=none;rounded=0;html=1;whiteSpace=wrap;" parent="97" vertex="1">
                    <mxGeometry y="90" width="163" height="30" as="geometry"/>
                </mxCell>
                <mxCell id="107" style="vsdxID=94;fillColor=none;gradientColor=none;shape=stencil(nZJZDsMgDERP43+Kj5Cm94gUUqxSiAjpcvuCrGahFVL4m8HPlkcYsJl0NyqQYgre3dST+qABzyAlWa08hagAW8BmcF5dvZttz37sEpnU3T3ShBf3idQhxXvrLgwashvwJKrRr/8LV6M7MIo14UDGLJWK4HuwGLyMZml+luRfPLhqaWg2MIr8DuIT3xC2Hw==);strokeColor=#F875AA;spacingTop=-3;spacingBottom=-3;spacingLeft=-3;spacingRight=-3;points=[];labelBackgroundColor=none;rounded=0;html=1;whiteSpace=wrap;" parent="106" vertex="1">
                    <mxGeometry width="30" height="30" as="geometry"/>
                </mxCell>
                <mxCell id="108" value="&lt;div style=&quot;font-size: 1px&quot;&gt;&lt;font style=&quot;font-size:11.64px;font-family:Helvetica;color:#000000;direction:ltr;letter-spacing:0px;line-height:120%;opacity:1&quot;&gt;room_name&lt;/font&gt;&lt;/div&gt;" style="verticalAlign=middle;align=left;vsdxID=95;fillColor=none;gradientColor=none;shape=stencil(nZJZDsMgDERP43+Kj5Cm94gUUqxSiAjpcvuCrGahFVL4m8HPlkcYsJl0NyqQYgre3dST+qABzyAlWa08hagAW8BmcF5dvZttz37sEpnU3T3ShBf3idQhxXvrLgwashvwJKrRr/8LV6M7MIo14UDGLJWK4HuwGLyMZml+luRfPLhqaWg2MIr8DuIT3xC2Hw==);strokeColor=#F875AA;spacingTop=-3;spacingBottom=-3;spacingLeft=-3;spacingRight=-3;points=[];labelBackgroundColor=none;rounded=0;html=1;whiteSpace=wrap;" parent="106" vertex="1">
                    <mxGeometry x="30" width="133" height="30" as="geometry"/>
                </mxCell>
                <mxCell id="109" style="vsdxID=9610000;fillColor=none;gradientColor=none;strokeColor=none;spacingTop=-3;spacingBottom=-3;spacingLeft=-3;spacingRight=-3;points=[];labelBackgroundColor=none;rounded=0;html=1;whiteSpace=wrap;" parent="97" vertex="1">
                    <mxGeometry y="120" width="163" height="30" as="geometry"/>
                </mxCell>
                <mxCell id="110" style="vsdxID=97;fillColor=none;gradientColor=none;shape=stencil(nZJZDsMgDERP43+Kj5Cm94gUUqxSiAjpcvuCrGahFVL4m8HPlkcYsJl0NyqQYgre3dST+qABzyAlWa08hagAW8BmcF5dvZttz37sEpnU3T3ShBf3idQhxXvrLgwashvwJKrRr/8LV6M7MIo14UDGLJWK4HuwGLyMZml+luRfPLhqaWg2MIr8DuIT3xC2Hw==);strokeColor=#F875AA;spacingTop=-3;spacingBottom=-3;spacingLeft=-3;spacingRight=-3;points=[];labelBackgroundColor=none;rounded=0;html=1;whiteSpace=wrap;" parent="109" vertex="1">
                    <mxGeometry width="30" height="30" as="geometry"/>
                </mxCell>
                <mxCell id="111" value="&lt;div style=&quot;font-size: 1px&quot;&gt;&lt;font style=&quot;font-size:11.64px;font-family:Helvetica;color:#000000;direction:ltr;letter-spacing:0px;line-height:120%;opacity:1&quot;&gt;room_number&lt;/font&gt;&lt;/div&gt;" style="verticalAlign=middle;align=left;vsdxID=98;fillColor=none;gradientColor=none;shape=stencil(nZJZDsMgDERP43+Kj5Cm94gUUqxSiAjpcvuCrGahFVL4m8HPlkcYsJl0NyqQYgre3dST+qABzyAlWa08hagAW8BmcF5dvZttz37sEpnU3T3ShBf3idQhxXvrLgwashvwJKrRr/8LV6M7MIo14UDGLJWK4HuwGLyMZml+luRfPLhqaWg2MIr8DuIT3xC2Hw==);strokeColor=#F875AA;spacingTop=-3;spacingBottom=-3;spacingLeft=-3;spacingRight=-3;points=[];labelBackgroundColor=none;rounded=0;html=1;whiteSpace=wrap;" parent="109" vertex="1">
                    <mxGeometry x="30" width="133" height="30" as="geometry"/>
                </mxCell>
                <mxCell id="112" style="vsdxID=9910000;fillColor=none;gradientColor=none;strokeColor=none;spacingTop=-3;spacingBottom=-3;spacingLeft=-3;spacingRight=-3;points=[];labelBackgroundColor=none;rounded=0;html=1;whiteSpace=wrap;" parent="2" vertex="1">
                    <mxGeometry x="210" y="320" width="163" height="150" as="geometry"/>
                </mxCell>
                <mxCell id="113" value="&lt;div style=&quot;font-size: 1px&quot;&gt;&lt;font style=&quot;font-size:11.64px;font-family:Helvetica;color:#000000;direction:ltr;letter-spacing:0px;line-height:120%;opacity:1&quot;&gt;&lt;b&gt;build (อาคารเรียน)&lt;/b&gt;&lt;/font&gt;&lt;/div&gt;" style="verticalAlign=middle;align=center;vsdxID=99;fillColor=#F875AA;gradientColor=none;shape=stencil(rZPdDsIgDIWfpreGUWN2P+d7LBkTIsLC8O/thdSfgNGMxbtT+NqckgNgM8luFMDZ5J09iIvqvQTcAufKSOGUDwqwBWwG68Te2ZPpqR67SEZ1tOc44Up9LHZwdqPqUe6I1Mp8JX+AFVuMpmwQb9uD0pq2ft3/e6enm1lWi+DUw1K3JVOreoU4f/IHvS6iN0V0XURnD52EIgtEEHnuwxH9GWzv);strokeColor=#F875AA;spacingTop=-3;spacingBottom=-3;spacingLeft=-3;spacingRight=-3;points=[];labelBackgroundColor=none;rounded=0;html=1;whiteSpace=wrap;" parent="112" vertex="1">
                    <mxGeometry width="163" height="150" as="geometry"/>
                </mxCell>
                <mxCell id="114" style="vsdxID=10010000;fillColor=none;gradientColor=none;strokeColor=none;spacingTop=-3;spacingBottom=-3;spacingLeft=-3;spacingRight=-3;points=[];labelBackgroundColor=none;rounded=0;html=1;whiteSpace=wrap;" parent="112" vertex="1">
                    <mxGeometry y="30" width="163" height="30" as="geometry"/>
                </mxCell>
                <mxCell id="115" style="vsdxID=100;fillColor=none;gradientColor=none;shape=stencil(UzV2Ls5ILEhVNTIoLinKz04tz0wpyVA1dlE1MsrMy0gtyiwBslSNXVWNndPyi1LTi/JL81Ig/IJEkEoQKze/DGRCBUSfAUiHkUElMs8NojAnMw9JoaEB2UphfKyKyVaKohDIQPgwLTMnBy5DhsdRFeL1OIa9kIghaDv1ggjFBWi2Axno6QAoBElDxq4A);strokeColor=#F875AA;spacingTop=-3;spacingBottom=-3;spacingLeft=-3;spacingRight=-3;points=[];labelBackgroundColor=none;rounded=0;html=1;whiteSpace=wrap;" parent="114" vertex="1">
                    <mxGeometry width="163" height="30" as="geometry"/>
                </mxCell>
                <mxCell id="116" value="&lt;div style=&quot;font-size: 1px&quot;&gt;&lt;font style=&quot;font-size:11.64px;font-family:Helvetica;color:#000000;direction:ltr;letter-spacing:0px;line-height:120%;opacity:1&quot;&gt;&lt;b&gt;PK&lt;/b&gt;&lt;/font&gt;&lt;/div&gt;" style="verticalAlign=middle;align=center;vsdxID=101;fillColor=none;gradientColor=none;shape=stencil(nZJZDsMgDERP43+Kj5Cm94gUUqxSiAjpcvuCrGahFVL4m8HPlkcYsJl0NyqQYgre3dST+qABzyAlWa08hagAW8BmcF5dvZttz37sEpnU3T3ShBf3idQhxXvrLgwashvwJKrRr/8LV6M7MIo14UDGLJWK4HuwGLyMZml+luRfPLhqaWg2MIr8DuIT3xC2Hw==);strokeColor=#F875AA;spacingTop=-3;spacingBottom=-3;spacingLeft=-3;spacingRight=-3;points=[];labelBackgroundColor=none;rounded=0;html=1;whiteSpace=wrap;" parent="114" vertex="1">
                    <mxGeometry width="30" height="30" as="geometry"/>
                </mxCell>
                <mxCell id="117" value="&lt;div style=&quot;font-size: 1px&quot;&gt;&lt;font style=&quot;font-size:11.64px;font-family:Helvetica;color:#000000;direction:ltr;letter-spacing:0px;line-height:120%;opacity:1&quot;&gt;&lt;u&gt;&lt;b&gt;build_id&lt;/b&gt;&lt;/u&gt;&lt;/font&gt;&lt;/div&gt;" style="verticalAlign=middle;align=left;vsdxID=102;fillColor=none;gradientColor=none;shape=stencil(nZJZDsMgDERP43+Kj5Cm94gUUqxSiAjpcvuCrGahFVL4m8HPlkcYsJl0NyqQYgre3dST+qABzyAlWa08hagAW8BmcF5dvZttz37sEpnU3T3ShBf3idQhxXvrLgwashvwJKrRr/8LV6M7MIo14UDGLJWK4HuwGLyMZml+luRfPLhqaWg2MIr8DuIT3xC2Hw==);strokeColor=#F875AA;spacingTop=-3;spacingBottom=-3;spacingLeft=-3;spacingRight=-3;points=[];labelBackgroundColor=none;rounded=0;html=1;whiteSpace=wrap;" parent="114" vertex="1">
                    <mxGeometry x="30" width="133" height="30" as="geometry"/>
                </mxCell>
                <mxCell id="118" style="vsdxID=10310000;fillColor=none;gradientColor=none;strokeColor=none;spacingTop=-3;spacingBottom=-3;spacingLeft=-3;spacingRight=-3;points=[];labelBackgroundColor=none;rounded=0;html=1;whiteSpace=wrap;" parent="112" vertex="1">
                    <mxGeometry y="60" width="163" height="30" as="geometry"/>
                </mxCell>
                <mxCell id="119" style="vsdxID=104;fillColor=none;gradientColor=none;shape=stencil(nZJZDsMgDERP43+Kj5Cm94gUUqxSiAjpcvuCrGahFVL4m8HPlkcYsJl0NyqQYgre3dST+qABzyAlWa08hagAW8BmcF5dvZttz37sEpnU3T3ShBf3idQhxXvrLgwashvwJKrRr/8LV6M7MIo14UDGLJWK4HuwGLyMZml+luRfPLhqaWg2MIr8DuIT3xC2Hw==);strokeColor=#F875AA;spacingTop=-3;spacingBottom=-3;spacingLeft=-3;spacingRight=-3;points=[];labelBackgroundColor=none;rounded=0;html=1;whiteSpace=wrap;" parent="118" vertex="1">
                    <mxGeometry width="30" height="30" as="geometry"/>
                </mxCell>
                <mxCell id="120" value="&lt;div style=&quot;font-size: 1px&quot;&gt;&lt;font style=&quot;font-size:11.64px;font-family:Helvetica;color:#000000;direction:ltr;letter-spacing:0px;line-height:120%;opacity:1&quot;&gt;build_name&lt;/font&gt;&lt;/div&gt;" style="verticalAlign=middle;align=left;vsdxID=105;fillColor=none;gradientColor=none;shape=stencil(nZJZDsMgDERP43+Kj5Cm94gUUqxSiAjpcvuCrGahFVL4m8HPlkcYsJl0NyqQYgre3dST+qABzyAlWa08hagAW8BmcF5dvZttz37sEpnU3T3ShBf3idQhxXvrLgwashvwJKrRr/8LV6M7MIo14UDGLJWK4HuwGLyMZml+luRfPLhqaWg2MIr8DuIT3xC2Hw==);strokeColor=#F875AA;spacingTop=-3;spacingBottom=-3;spacingLeft=-3;spacingRight=-3;points=[];labelBackgroundColor=none;rounded=0;html=1;whiteSpace=wrap;" parent="118" vertex="1">
                    <mxGeometry x="30" width="133" height="30" as="geometry"/>
                </mxCell>
                <mxCell id="121" style="vsdxID=10610000;fillColor=none;gradientColor=none;strokeColor=none;spacingTop=-3;spacingBottom=-3;spacingLeft=-3;spacingRight=-3;points=[];labelBackgroundColor=none;rounded=0;html=1;whiteSpace=wrap;" parent="112" vertex="1">
                    <mxGeometry y="90" width="163" height="30" as="geometry"/>
                </mxCell>
                <mxCell id="122" style="vsdxID=107;fillColor=none;gradientColor=none;shape=stencil(nZJZDsMgDERP43+Kj5Cm94gUUqxSiAjpcvuCrGahFVL4m8HPlkcYsJl0NyqQYgre3dST+qABzyAlWa08hagAW8BmcF5dvZttz37sEpnU3T3ShBf3idQhxXvrLgwashvwJKrRr/8LV6M7MIo14UDGLJWK4HuwGLyMZml+luRfPLhqaWg2MIr8DuIT3xC2Hw==);strokeColor=#F875AA;spacingTop=-3;spacingBottom=-3;spacingLeft=-3;spacingRight=-3;points=[];labelBackgroundColor=none;rounded=0;html=1;whiteSpace=wrap;" parent="121" vertex="1">
                    <mxGeometry width="30" height="30" as="geometry"/>
                </mxCell>
                <mxCell id="123" value="&lt;div style=&quot;font-size: 1px&quot;&gt;&lt;font style=&quot;font-size:11.64px;font-family:Helvetica;color:#000000;direction:ltr;letter-spacing:0px;line-height:120%;opacity:1&quot;&gt;build_number&lt;/font&gt;&lt;/div&gt;" style="verticalAlign=middle;align=left;vsdxID=108;fillColor=none;gradientColor=none;shape=stencil(nZJZDsMgDERP43+Kj5Cm94gUUqxSiAjpcvuCrGahFVL4m8HPlkcYsJl0NyqQYgre3dST+qABzyAlWa08hagAW8BmcF5dvZttz37sEpnU3T3ShBf3idQhxXvrLgwashvwJKrRr/8LV6M7MIo14UDGLJWK4HuwGLyMZml+luRfPLhqaWg2MIr8DuIT3xC2Hw==);strokeColor=#F875AA;spacingTop=-3;spacingBottom=-3;spacingLeft=-3;spacingRight=-3;points=[];labelBackgroundColor=none;rounded=0;html=1;whiteSpace=wrap;" parent="121" vertex="1">
                    <mxGeometry x="30" width="133" height="30" as="geometry"/>
                </mxCell>
                <mxCell id="124" style="vsdxID=10910000;fillColor=none;gradientColor=none;strokeColor=none;spacingTop=-3;spacingBottom=-3;spacingLeft=-3;spacingRight=-3;points=[];labelBackgroundColor=none;rounded=0;html=1;whiteSpace=wrap;" parent="112" vertex="1">
                    <mxGeometry y="120" width="163" height="30" as="geometry"/>
                </mxCell>
                <mxCell id="125" style="vsdxID=110;fillColor=none;gradientColor=none;shape=stencil(nZJZDsMgDERP43+Kj5Cm94gUUqxSiAjpcvuCrGahFVL4m8HPlkcYsJl0NyqQYgre3dST+qABzyAlWa08hagAW8BmcF5dvZttz37sEpnU3T3ShBf3idQhxXvrLgwashvwJKrRr/8LV6M7MIo14UDGLJWK4HuwGLyMZml+luRfPLhqaWg2MIr8DuIT3xC2Hw==);strokeColor=#000000;spacingTop=-3;spacingBottom=-3;spacingLeft=-3;spacingRight=-3;points=[];labelBackgroundColor=none;rounded=0;html=1;whiteSpace=wrap;" parent="124" vertex="1">
                    <mxGeometry width="30" height="30" as="geometry"/>
                </mxCell>
                <mxCell id="126" value="&lt;div style=&quot;font-size: 1px&quot;&gt;&lt;font style=&quot;font-size:11.64px;font-family:Helvetica;color:#000000;direction:ltr;letter-spacing:0px;line-height:120%;opacity:1&quot;&gt;build_image&lt;/font&gt;&lt;/div&gt;" style="verticalAlign=middle;align=center;vsdxID=111;fillColor=none;gradientColor=none;shape=stencil(nZJZDsMgDERP43+Kj5Cm94gUUqxSiAjpcvuCrGahFVL4m8HPlkcYsJl0NyqQYgre3dST+qABzyAlWa08hagAW8BmcF5dvZttz37sEpnU3T3ShBf3idQhxXvrLgwashvwJKrRr/8LV6M7MIo14UDGLJWK4HuwGLyMZml+luRfPLhqaWg2MIr8DuIT3xC2Hw==);strokeColor=#000000;spacingTop=-3;spacingBottom=-3;spacingLeft=-3;spacingRight=-3;points=[];labelBackgroundColor=none;rounded=0;html=1;whiteSpace=wrap;" parent="124" vertex="1">
                    <mxGeometry x="30" width="133" height="30" as="geometry"/>
                </mxCell>
                <mxCell id="127" style="vsdxID=11610000;fillColor=none;gradientColor=none;strokeColor=none;spacingTop=-3;spacingBottom=-3;spacingLeft=-3;spacingRight=-3;points=[];labelBackgroundColor=none;rounded=0;html=1;whiteSpace=wrap;" parent="2" vertex="1">
                    <mxGeometry x="436" y="580" width="164" height="210" as="geometry"/>
                </mxCell>
                <mxCell id="128" value="&lt;div style=&quot;font-size: 1px&quot;&gt;&lt;font style=&quot;font-size:11.64px;font-family:Helvetica;color:#000000;direction:ltr;letter-spacing:0px;line-height:120%;opacity:1&quot;&gt;&lt;b&gt;Report (ถ้าทำทัน)&lt;/b&gt;&lt;/font&gt;&lt;/div&gt;" style="verticalAlign=middle;align=center;vsdxID=116;fillColor=#F875AA;gradientColor=none;shape=stencil(tZPdDsIgDIWfhlsChQlez/keS8YccY6Fzb+3FyTTyLJkaLxr6fma09Ailg9N2SsEZBitOaqrrsYGsR0C0F2jrB5dhFiBWF4bqw7WnLsq5H3plT46mYvvcAsc8QSQe8gox7B9vuyDuNXdopgsCyn5Wjqz4IK3+Vq3bZj9Vf/DZJOndYaTxLGNHzwn9qZyKq/tPwNA4kykAByw3KQAmcCUpwCCYs5SAJlhQVOA6H8/1jFaRRfEd+eews2y4gE=);strokeColor=#F875AA;spacingTop=-3;spacingBottom=-3;spacingLeft=-3;spacingRight=-3;points=[];labelBackgroundColor=none;rounded=0;html=1;whiteSpace=wrap;" parent="127" vertex="1">
                    <mxGeometry width="164" height="210" as="geometry"/>
                </mxCell>
                <mxCell id="129" style="vsdxID=11710000;fillColor=none;gradientColor=none;strokeColor=none;spacingTop=-3;spacingBottom=-3;spacingLeft=-3;spacingRight=-3;points=[];labelBackgroundColor=none;rounded=0;html=1;whiteSpace=wrap;" parent="127" vertex="1">
                    <mxGeometry y="30" width="164" height="30" as="geometry"/>
                </mxCell>
                <mxCell id="130" style="vsdxID=117;fillColor=none;gradientColor=none;shape=stencil(UzV2Ls5ILEhVNTIoLinKz04tz0wpyVA1dlE1MsrMy0gtyiwBslSNXVWNndPyi1LTi/JL81Ig/IJEkEoQKze/DGRCBUSfAUiHkUElMs8NojAnMw9JoaEB2UphfKyKyVaKohDIQPgwLTMnBy5DhsdRFeL1OIa9kIghaDv1ggjFBWi2Axno6QAoBElDxq4A);strokeColor=#F875AA;spacingTop=-3;spacingBottom=-3;spacingLeft=-3;spacingRight=-3;points=[];labelBackgroundColor=none;rounded=0;html=1;whiteSpace=wrap;" parent="129" vertex="1">
                    <mxGeometry width="164" height="30" as="geometry"/>
                </mxCell>
                <mxCell id="131" value="&lt;div style=&quot;font-size: 1px&quot;&gt;&lt;font style=&quot;font-size:11.64px;font-family:Helvetica;color:#000000;direction:ltr;letter-spacing:0px;line-height:120%;opacity:1&quot;&gt;&lt;b&gt;PK&lt;/b&gt;&lt;/font&gt;&lt;/div&gt;" style="verticalAlign=middle;align=center;vsdxID=118;fillColor=none;gradientColor=none;shape=stencil(nZJZDsMgDERP43+Kj5Cm94gUUqxSiAjpcvuCrGahFVL4m8HPlkcYsJl0NyqQYgre3dST+qABzyAlWa08hagAW8BmcF5dvZttz37sEpnU3T3ShBf3idQhxXvrLgwashvwJKrRr/8LV6M7MIo14UDGLJWK4HuwGLyMZml+luRfPLhqaWg2MIr8DuIT3xC2Hw==);strokeColor=#000000;spacingTop=-3;spacingBottom=-3;spacingLeft=-3;spacingRight=-3;points=[];labelBackgroundColor=none;rounded=0;html=1;whiteSpace=wrap;" parent="129" vertex="1">
                    <mxGeometry width="30" height="30" as="geometry"/>
                </mxCell>
                <mxCell id="132" value="&lt;div style=&quot;font-size: 1px&quot;&gt;&lt;font style=&quot;font-size:11.64px;font-family:Helvetica;color:#000000;direction:ltr;letter-spacing:0px;line-height:120%;opacity:1&quot;&gt;&lt;u&gt;&lt;b&gt;rep_id&lt;/b&gt;&lt;/u&gt;&lt;/font&gt;&lt;/div&gt;" style="verticalAlign=middle;align=left;vsdxID=119;fillColor=none;gradientColor=none;shape=stencil(nZJZDsMgDERP43+Kj5Cm94gUUqxSiAjpcvuCrGahFVL4m8HPlkcYsJl0NyqQYgre3dST+qABzyAlWa08hagAW8BmcF5dvZttz37sEpnU3T3ShBf3idQhxXvrLgwashvwJKrRr/8LV6M7MIo14UDGLJWK4HuwGLyMZml+luRfPLhqaWg2MIr8DuIT3xC2Hw==);strokeColor=#000000;spacingTop=-3;spacingBottom=-3;spacingLeft=-3;spacingRight=-3;points=[];labelBackgroundColor=none;rounded=0;html=1;whiteSpace=wrap;" parent="129" vertex="1">
                    <mxGeometry x="30" width="134" height="30" as="geometry"/>
                </mxCell>
                <mxCell id="133" style="vsdxID=12010000;fillColor=none;gradientColor=none;strokeColor=none;spacingTop=-3;spacingBottom=-3;spacingLeft=-3;spacingRight=-3;points=[];labelBackgroundColor=none;rounded=0;html=1;whiteSpace=wrap;" parent="127" vertex="1">
                    <mxGeometry y="60" width="164" height="30" as="geometry"/>
                </mxCell>
                <mxCell id="134" value="&lt;div style=&quot;font-size: 1px&quot;&gt;&lt;font style=&quot;font-size:11.64px;font-family:Helvetica;color:#000000;direction:ltr;letter-spacing:0px;line-height:120%;opacity:1&quot;&gt;FK&lt;/font&gt;&lt;/div&gt;" style="verticalAlign=middle;align=center;vsdxID=121;fillColor=none;gradientColor=none;shape=stencil(nZJZDsMgDERP43+Kj5Cm94gUUqxSiAjpcvuCrGahFVL4m8HPlkcYsJl0NyqQYgre3dST+qABzyAlWa08hagAW8BmcF5dvZttz37sEpnU3T3ShBf3idQhxXvrLgwashvwJKrRr/8LV6M7MIo14UDGLJWK4HuwGLyMZml+luRfPLhqaWg2MIr8DuIT3xC2Hw==);strokeColor=#000000;spacingTop=-3;spacingBottom=-3;spacingLeft=-3;spacingRight=-3;points=[];labelBackgroundColor=none;rounded=0;html=1;whiteSpace=wrap;" parent="133" vertex="1">
                    <mxGeometry width="30" height="30" as="geometry"/>
                </mxCell>
                <mxCell id="135" value="&lt;div style=&quot;font-size: 1px&quot;&gt;&lt;font style=&quot;font-size:11.64px;font-family:Helvetica;color:#000000;direction:ltr;letter-spacing:0px;line-height:120%;opacity:1&quot;&gt;user_id&lt;/font&gt;&lt;/div&gt;" style="verticalAlign=middle;align=center;vsdxID=122;fillColor=none;gradientColor=none;shape=stencil(nZJZDsMgDERP43+Kj5Cm94gUUqxSiAjpcvuCrGahFVL4m8HPlkcYsJl0NyqQYgre3dST+qABzyAlWa08hagAW8BmcF5dvZttz37sEpnU3T3ShBf3idQhxXvrLgwashvwJKrRr/8LV6M7MIo14UDGLJWK4HuwGLyMZml+luRfPLhqaWg2MIr8DuIT3xC2Hw==);strokeColor=#000000;spacingTop=-3;spacingBottom=-3;spacingLeft=-3;spacingRight=-3;points=[];labelBackgroundColor=none;rounded=0;html=1;whiteSpace=wrap;" parent="133" vertex="1">
                    <mxGeometry x="30" width="134" height="30" as="geometry"/>
                </mxCell>
                <mxCell id="136" style="vsdxID=12310000;fillColor=none;gradientColor=none;strokeColor=none;spacingTop=-3;spacingBottom=-3;spacingLeft=-3;spacingRight=-3;points=[];labelBackgroundColor=none;rounded=0;html=1;whiteSpace=wrap;" parent="127" vertex="1">
                    <mxGeometry y="90" width="164" height="30" as="geometry"/>
                </mxCell>
                <mxCell id="137" style="vsdxID=124;fillColor=none;gradientColor=none;shape=stencil(nZJZDsMgDERP43+Kj5Cm94gUUqxSiAjpcvuCrGahFVL4m8HPlkcYsJl0NyqQYgre3dST+qABzyAlWa08hagAW8BmcF5dvZttz37sEpnU3T3ShBf3idQhxXvrLgwashvwJKrRr/8LV6M7MIo14UDGLJWK4HuwGLyMZml+luRfPLhqaWg2MIr8DuIT3xC2Hw==);strokeColor=#000000;spacingTop=-3;spacingBottom=-3;spacingLeft=-3;spacingRight=-3;points=[];labelBackgroundColor=none;rounded=0;html=1;whiteSpace=wrap;" parent="136" vertex="1">
                    <mxGeometry width="30" height="30" as="geometry"/>
                </mxCell>
                <mxCell id="138" value="&lt;div style=&quot;font-size: 1px&quot;&gt;&lt;font style=&quot;font-size:11.64px;font-family:Helvetica;color:#000000;direction:ltr;letter-spacing:0px;line-height:120%;opacity:1&quot;&gt;rep_title&lt;/font&gt;&lt;/div&gt;" style="verticalAlign=middle;align=left;vsdxID=125;fillColor=none;gradientColor=none;shape=stencil(nZJZDsMgDERP43+Kj5Cm94gUUqxSiAjpcvuCrGahFVL4m8HPlkcYsJl0NyqQYgre3dST+qABzyAlWa08hagAW8BmcF5dvZttz37sEpnU3T3ShBf3idQhxXvrLgwashvwJKrRr/8LV6M7MIo14UDGLJWK4HuwGLyMZml+luRfPLhqaWg2MIr8DuIT3xC2Hw==);strokeColor=#000000;spacingTop=-3;spacingBottom=-3;spacingLeft=-3;spacingRight=-3;points=[];labelBackgroundColor=none;rounded=0;html=1;whiteSpace=wrap;" parent="136" vertex="1">
                    <mxGeometry x="30" width="134" height="30" as="geometry"/>
                </mxCell>
                <mxCell id="139" style="vsdxID=12610000;fillColor=none;gradientColor=none;strokeColor=none;spacingTop=-3;spacingBottom=-3;spacingLeft=-3;spacingRight=-3;points=[];labelBackgroundColor=none;rounded=0;html=1;whiteSpace=wrap;" parent="127" vertex="1">
                    <mxGeometry y="120" width="164" height="30" as="geometry"/>
                </mxCell>
                <mxCell id="140" style="vsdxID=127;fillColor=none;gradientColor=none;shape=stencil(nZJZDsMgDERP43+Kj5Cm94gUUqxSiAjpcvuCrGahFVL4m8HPlkcYsJl0NyqQYgre3dST+qABzyAlWa08hagAW8BmcF5dvZttz37sEpnU3T3ShBf3idQhxXvrLgwashvwJKrRr/8LV6M7MIo14UDGLJWK4HuwGLyMZml+luRfPLhqaWg2MIr8DuIT3xC2Hw==);strokeColor=#000000;spacingTop=-3;spacingBottom=-3;spacingLeft=-3;spacingRight=-3;points=[];labelBackgroundColor=none;rounded=0;html=1;whiteSpace=wrap;" parent="139" vertex="1">
                    <mxGeometry width="30" height="30" as="geometry"/>
                </mxCell>
                <mxCell id="141" value="&lt;div style=&quot;font-size: 1px&quot;&gt;&lt;font style=&quot;font-size:11.64px;font-family:Helvetica;color:#000000;direction:ltr;letter-spacing:0px;line-height:120%;opacity:1&quot;&gt;rep_status&lt;/font&gt;&lt;/div&gt;" style="verticalAlign=middle;align=left;vsdxID=128;fillColor=none;gradientColor=none;shape=stencil(nZJZDsMgDERP43+Kj5Cm94gUUqxSiAjpcvuCrGahFVL4m8HPlkcYsJl0NyqQYgre3dST+qABzyAlWa08hagAW8BmcF5dvZttz37sEpnU3T3ShBf3idQhxXvrLgwashvwJKrRr/8LV6M7MIo14UDGLJWK4HuwGLyMZml+luRfPLhqaWg2MIr8DuIT3xC2Hw==);strokeColor=#000000;spacingTop=-3;spacingBottom=-3;spacingLeft=-3;spacingRight=-3;points=[];labelBackgroundColor=none;rounded=0;html=1;whiteSpace=wrap;" parent="139" vertex="1">
                    <mxGeometry x="30" width="134" height="30" as="geometry"/>
                </mxCell>
                <mxCell id="142" style="vsdxID=12910000;fillColor=none;gradientColor=none;strokeColor=none;spacingTop=-3;spacingBottom=-3;spacingLeft=-3;spacingRight=-3;points=[];labelBackgroundColor=none;rounded=0;html=1;whiteSpace=wrap;" parent="127" vertex="1">
                    <mxGeometry y="150" width="164" height="30" as="geometry"/>
                </mxCell>
                <mxCell id="143" style="vsdxID=130;fillColor=none;gradientColor=none;shape=stencil(nZJZDsMgDERP43+Kj5Cm94gUUqxSiAjpcvuCrGahFVL4m8HPlkcYsJl0NyqQYgre3dST+qABzyAlWa08hagAW8BmcF5dvZttz37sEpnU3T3ShBf3idQhxXvrLgwashvwJKrRr/8LV6M7MIo14UDGLJWK4HuwGLyMZml+luRfPLhqaWg2MIr8DuIT3xC2Hw==);strokeColor=#000000;spacingTop=-3;spacingBottom=-3;spacingLeft=-3;spacingRight=-3;points=[];labelBackgroundColor=none;rounded=0;html=1;whiteSpace=wrap;" parent="142" vertex="1">
                    <mxGeometry width="30" height="30" as="geometry"/>
                </mxCell>
                <mxCell id="144" value="&lt;div style=&quot;font-size: 1px&quot;&gt;&lt;font style=&quot;font-size:11.64px;font-family:Helvetica;color:#000000;direction:ltr;letter-spacing:0px;line-height:120%;opacity:1&quot;&gt;rep_createdAt&lt;/font&gt;&lt;/div&gt;" style="verticalAlign=middle;align=left;vsdxID=131;fillColor=none;gradientColor=none;shape=stencil(nZJZDsMgDERP43+Kj5Cm94gUUqxSiAjpcvuCrGahFVL4m8HPlkcYsJl0NyqQYgre3dST+qABzyAlWa08hagAW8BmcF5dvZttz37sEpnU3T3ShBf3idQhxXvrLgwashvwJKrRr/8LV6M7MIo14UDGLJWK4HuwGLyMZml+luRfPLhqaWg2MIr8DuIT3xC2Hw==);strokeColor=#000000;spacingTop=-3;spacingBottom=-3;spacingLeft=-3;spacingRight=-3;points=[];labelBackgroundColor=none;rounded=0;html=1;whiteSpace=wrap;" parent="142" vertex="1">
                    <mxGeometry x="30" width="134" height="30" as="geometry"/>
                </mxCell>
                <mxCell id="145" style="vsdxID=13210000;fillColor=none;gradientColor=none;strokeColor=none;spacingTop=-3;spacingBottom=-3;spacingLeft=-3;spacingRight=-3;points=[];labelBackgroundColor=none;rounded=0;html=1;whiteSpace=wrap;" parent="127" vertex="1">
                    <mxGeometry y="180" width="164" height="30" as="geometry"/>
                </mxCell>
                <mxCell id="146" style="vsdxID=133;fillColor=none;gradientColor=none;shape=stencil(nZJZDsMgDERP43+Kj5Cm94gUUqxSiAjpcvuCrGahFVL4m8HPlkcYsJl0NyqQYgre3dST+qABzyAlWa08hagAW8BmcF5dvZttz37sEpnU3T3ShBf3idQhxXvrLgwashvwJKrRr/8LV6M7MIo14UDGLJWK4HuwGLyMZml+luRfPLhqaWg2MIr8DuIT3xC2Hw==);strokeColor=#000000;spacingTop=-3;spacingBottom=-3;spacingLeft=-3;spacingRight=-3;points=[];labelBackgroundColor=none;rounded=0;html=1;whiteSpace=wrap;" parent="145" vertex="1">
                    <mxGeometry width="30" height="30" as="geometry"/>
                </mxCell>
                <mxCell id="147" value="&lt;div style=&quot;font-size: 1px&quot;&gt;&lt;font style=&quot;font-size:11.64px;font-family:Helvetica;color:#000000;direction:ltr;letter-spacing:0px;line-height:120%;opacity:1&quot;&gt;rep_updatedAt&lt;/font&gt;&lt;/div&gt;" style="verticalAlign=middle;align=center;vsdxID=134;fillColor=none;gradientColor=none;shape=stencil(nZJZDsMgDERP43+Kj5Cm94gUUqxSiAjpcvuCrGahFVL4m8HPlkcYsJl0NyqQYgre3dST+qABzyAlWa08hagAW8BmcF5dvZttz37sEpnU3T3ShBf3idQhxXvrLgwashvwJKrRr/8LV6M7MIo14UDGLJWK4HuwGLyMZml+luRfPLhqaWg2MIr8DuIT3xC2Hw==);strokeColor=#000000;spacingTop=-3;spacingBottom=-3;spacingLeft=-3;spacingRight=-3;points=[];labelBackgroundColor=none;rounded=0;html=1;whiteSpace=wrap;" parent="145" vertex="1">
                    <mxGeometry x="30" width="134" height="30" as="geometry"/>
                </mxCell>
                <mxCell id="148" style="vsdxID=13510000;fillColor=none;gradientColor=none;strokeColor=none;spacingTop=-3;spacingBottom=-3;spacingLeft=-3;spacingRight=-3;points=[];labelBackgroundColor=none;rounded=0;html=1;whiteSpace=wrap;" parent="2" vertex="1">
                    <mxGeometry x="211" y="480" width="162" height="240" as="geometry"/>
                </mxCell>
                <mxCell id="149" value="&lt;div style=&quot;font-size: 1px&quot;&gt;&lt;font style=&quot;font-size:11.64px;font-family:Helvetica;color:#000000;direction:ltr;letter-spacing:0px;line-height:120%;opacity:1&quot;&gt;&lt;b&gt;schedule&lt;/b&gt;&lt;/font&gt;&lt;/div&gt;" style="verticalAlign=middle;align=center;vsdxID=135;fillColor=#F875AA;gradientColor=none;shape=stencil(rZPdDsIgDIWfhtsFSuZ2P+d7LBkTIsLC8O/tBYkaWWbs4t1p+dqckpbwZpLdKAjQyTt7EBfVe0n4lgAoI4VTPijCW8KbwTqxd/Zk+hSPXSSjOtpz7HBNdTRWAL2liEFRPhK7xGplFlm6DDK6Gs0dBPG2Piit0+Sv9//P9XT0m10UnLlY7xjXmdVFCZjuMx5QNK9w3ctvfzijN0jvFYqukd6zBfhY12xVg8ivMqTSRfP2Dg==);strokeColor=#F875AA;spacingTop=-3;spacingBottom=-3;spacingLeft=-3;spacingRight=-3;points=[];labelBackgroundColor=none;rounded=0;html=1;whiteSpace=wrap;" parent="148" vertex="1">
                    <mxGeometry width="162" height="240" as="geometry"/>
                </mxCell>
                <mxCell id="150" style="vsdxID=13610000;fillColor=none;gradientColor=none;strokeColor=none;spacingTop=-3;spacingBottom=-3;spacingLeft=-3;spacingRight=-3;points=[];labelBackgroundColor=none;rounded=0;html=1;whiteSpace=wrap;" parent="148" vertex="1">
                    <mxGeometry y="30" width="162" height="30" as="geometry"/>
                </mxCell>
                <mxCell id="151" style="vsdxID=136;fillColor=none;gradientColor=none;shape=stencil(UzV2Ls5ILEhVNTIoLinKz04tz0wpyVA1dlE1MsrMy0gtyiwBslSNXVWNndPyi1LTi/JL81Ig/IJEkEoQKze/DGRCBUSfAUiHkUElMs8NojAnMw9JoaEB2UphfKyKyVaKohDIQPgwLTMnBy5DhsdRFeL1OIa9kIghaDv1ggjFBWi2Axno6QAoBElDxq4A);strokeColor=#F875AA;spacingTop=-3;spacingBottom=-3;spacingLeft=-3;spacingRight=-3;points=[];labelBackgroundColor=none;rounded=0;html=1;whiteSpace=wrap;" parent="150" vertex="1">
                    <mxGeometry width="162" height="30" as="geometry"/>
                </mxCell>
                <mxCell id="152" value="&lt;div style=&quot;font-size: 1px&quot;&gt;&lt;font style=&quot;font-size:11.64px;font-family:Helvetica;color:#000000;direction:ltr;letter-spacing:0px;line-height:120%;opacity:1&quot;&gt;&lt;b&gt;PK&lt;/b&gt;&lt;/font&gt;&lt;/div&gt;" style="verticalAlign=middle;align=center;vsdxID=137;fillColor=none;gradientColor=none;shape=stencil(nZJZDsMgDERP43+Kj5Cm94gUUqxSiAjpcvuCrGahFVL4m8HPlkcYsJl0NyqQYgre3dST+qABzyAlWa08hagAW8BmcF5dvZttz37sEpnU3T3ShBf3idQhxXvrLgwashvwJKrRr/8LV6M7MIo14UDGLJWK4HuwGLyMZml+luRfPLhqaWg2MIr8DuIT3xC2Hw==);strokeColor=#000000;spacingTop=-3;spacingBottom=-3;spacingLeft=-3;spacingRight=-3;points=[];labelBackgroundColor=none;rounded=0;html=1;whiteSpace=wrap;" parent="150" vertex="1">
                    <mxGeometry width="30" height="30" as="geometry"/>
                </mxCell>
                <mxCell id="153" value="&lt;div style=&quot;font-size: 1px&quot;&gt;&lt;font style=&quot;font-size:11.64px;font-family:Helvetica;color:#000000;direction:ltr;letter-spacing:0px;line-height:120%;opacity:1&quot;&gt;&lt;u&gt;&lt;b&gt;table_id&lt;/b&gt;&lt;/u&gt;&lt;/font&gt;&lt;/div&gt;" style="verticalAlign=middle;align=left;vsdxID=138;fillColor=none;gradientColor=none;shape=stencil(nZJZDsMgDERP43+Kj5Cm94gUUqxSiAjpcvuCrGahFVL4m8HPlkcYsJl0NyqQYgre3dST+qABzyAlWa08hagAW8BmcF5dvZttz37sEpnU3T3ShBf3idQhxXvrLgwashvwJKrRr/8LV6M7MIo14UDGLJWK4HuwGLyMZml+luRfPLhqaWg2MIr8DuIT3xC2Hw==);strokeColor=#000000;spacingTop=-3;spacingBottom=-3;spacingLeft=-3;spacingRight=-3;points=[];labelBackgroundColor=none;rounded=0;html=1;whiteSpace=wrap;" parent="150" vertex="1">
                    <mxGeometry x="30" width="132" height="30" as="geometry"/>
                </mxCell>
                <mxCell id="154" style="vsdxID=13910000;fillColor=none;gradientColor=none;strokeColor=none;spacingTop=-3;spacingBottom=-3;spacingLeft=-3;spacingRight=-3;points=[];labelBackgroundColor=none;rounded=0;html=1;whiteSpace=wrap;" parent="148" vertex="1">
                    <mxGeometry y="60" width="162" height="30" as="geometry"/>
                </mxCell>
                <mxCell id="155" value="&lt;div style=&quot;font-size: 1px&quot;&gt;&lt;font style=&quot;font-size:11.64px;font-family:Helvetica;color:#000000;direction:ltr;letter-spacing:0px;line-height:120%;opacity:1&quot;&gt;FK&lt;/font&gt;&lt;/div&gt;" style="verticalAlign=middle;align=center;vsdxID=140;fillColor=none;gradientColor=none;shape=stencil(nZJZDsMgDERP43+Kj5Cm94gUUqxSiAjpcvuCrGahFVL4m8HPlkcYsJl0NyqQYgre3dST+qABzyAlWa08hagAW8BmcF5dvZttz37sEpnU3T3ShBf3idQhxXvrLgwashvwJKrRr/8LV6M7MIo14UDGLJWK4HuwGLyMZml+luRfPLhqaWg2MIr8DuIT3xC2Hw==);strokeColor=#000000;spacingTop=-3;spacingBottom=-3;spacingLeft=-3;spacingRight=-3;points=[];labelBackgroundColor=none;rounded=0;html=1;whiteSpace=wrap;" parent="154" vertex="1">
                    <mxGeometry width="30" height="30" as="geometry"/>
                </mxCell>
                <mxCell id="156" value="&lt;div style=&quot;font-size: 1px&quot;&gt;&lt;font style=&quot;font-size:11.64px;font-family:Helvetica;color:#000000;direction:ltr;letter-spacing:0px;line-height:120%;opacity:1&quot;&gt;class_id&lt;/font&gt;&lt;/div&gt;" style="verticalAlign=middle;align=left;vsdxID=141;fillColor=none;gradientColor=none;shape=stencil(nZJZDsMgDERP43+Kj5Cm94gUUqxSiAjpcvuCrGahFVL4m8HPlkcYsJl0NyqQYgre3dST+qABzyAlWa08hagAW8BmcF5dvZttz37sEpnU3T3ShBf3idQhxXvrLgwashvwJKrRr/8LV6M7MIo14UDGLJWK4HuwGLyMZml+luRfPLhqaWg2MIr8DuIT3xC2Hw==);strokeColor=#000000;spacingTop=-3;spacingBottom=-3;spacingLeft=-3;spacingRight=-3;points=[];labelBackgroundColor=none;rounded=0;html=1;whiteSpace=wrap;" parent="154" vertex="1">
                    <mxGeometry x="30" width="132" height="30" as="geometry"/>
                </mxCell>
                <mxCell id="157" style="vsdxID=14210000;fillColor=none;gradientColor=none;strokeColor=none;spacingTop=-3;spacingBottom=-3;spacingLeft=-3;spacingRight=-3;points=[];labelBackgroundColor=none;rounded=0;html=1;whiteSpace=wrap;" parent="148" vertex="1">
                    <mxGeometry y="90" width="162" height="30" as="geometry"/>
                </mxCell>
                <mxCell id="158" value="&lt;div style=&quot;font-size: 1px&quot;&gt;&lt;font style=&quot;font-size:11.64px;font-family:Helvetica;color:#000000;direction:ltr;letter-spacing:0px;line-height:120%;opacity:1&quot;&gt;FK&lt;/font&gt;&lt;/div&gt;" style="verticalAlign=middle;align=center;vsdxID=143;fillColor=none;gradientColor=none;shape=stencil(nZJZDsMgDERP43+Kj5Cm94gUUqxSiAjpcvuCrGahFVL4m8HPlkcYsJl0NyqQYgre3dST+qABzyAlWa08hagAW8BmcF5dvZttz37sEpnU3T3ShBf3idQhxXvrLgwashvwJKrRr/8LV6M7MIo14UDGLJWK4HuwGLyMZml+luRfPLhqaWg2MIr8DuIT3xC2Hw==);strokeColor=#000000;spacingTop=-3;spacingBottom=-3;spacingLeft=-3;spacingRight=-3;points=[];labelBackgroundColor=none;rounded=0;html=1;whiteSpace=wrap;" parent="157" vertex="1">
                    <mxGeometry width="30" height="30" as="geometry"/>
                </mxCell>
                <mxCell id="159" value="&lt;div style=&quot;font-size: 1px&quot;&gt;&lt;font style=&quot;font-size:11.64px;font-family:Helvetica;color:#000000;direction:ltr;letter-spacing:0px;line-height:120%;opacity:1&quot;&gt;sub_id&lt;/font&gt;&lt;/div&gt;" style="verticalAlign=middle;align=left;vsdxID=144;fillColor=none;gradientColor=none;shape=stencil(nZJZDsMgDERP43+Kj5Cm94gUUqxSiAjpcvuCrGahFVL4m8HPlkcYsJl0NyqQYgre3dST+qABzyAlWa08hagAW8BmcF5dvZttz37sEpnU3T3ShBf3idQhxXvrLgwashvwJKrRr/8LV6M7MIo14UDGLJWK4HuwGLyMZml+luRfPLhqaWg2MIr8DuIT3xC2Hw==);strokeColor=#000000;spacingTop=-3;spacingBottom=-3;spacingLeft=-3;spacingRight=-3;points=[];labelBackgroundColor=none;rounded=0;html=1;whiteSpace=wrap;" parent="157" vertex="1">
                    <mxGeometry x="30" width="132" height="30" as="geometry"/>
                </mxCell>
                <mxCell id="160" style="vsdxID=14510000;fillColor=none;gradientColor=none;strokeColor=none;spacingTop=-3;spacingBottom=-3;spacingLeft=-3;spacingRight=-3;points=[];labelBackgroundColor=none;rounded=0;html=1;whiteSpace=wrap;" parent="148" vertex="1">
                    <mxGeometry y="120" width="162" height="30" as="geometry"/>
                </mxCell>
                <mxCell id="161" value="&lt;div style=&quot;font-size: 1px&quot;&gt;&lt;font style=&quot;font-size:11.64px;font-family:Helvetica;color:#000000;direction:ltr;letter-spacing:0px;line-height:120%;opacity:1&quot;&gt;FK&lt;/font&gt;&lt;/div&gt;" style="verticalAlign=middle;align=center;vsdxID=146;fillColor=none;gradientColor=none;shape=stencil(nZJZDsMgDERP43+Kj5Cm94gUUqxSiAjpcvuCrGahFVL4m8HPlkcYsJl0NyqQYgre3dST+qABzyAlWa08hagAW8BmcF5dvZttz37sEpnU3T3ShBf3idQhxXvrLgwashvwJKrRr/8LV6M7MIo14UDGLJWK4HuwGLyMZml+luRfPLhqaWg2MIr8DuIT3xC2Hw==);strokeColor=#000000;spacingTop=-3;spacingBottom=-3;spacingLeft=-3;spacingRight=-3;points=[];labelBackgroundColor=none;rounded=0;html=1;whiteSpace=wrap;" parent="160" vertex="1">
                    <mxGeometry width="30" height="30" as="geometry"/>
                </mxCell>
                <mxCell id="162" value="&lt;div style=&quot;font-size: 1px&quot;&gt;&lt;font style=&quot;font-size:11.64px;font-family:Helvetica;color:#000000;direction:ltr;letter-spacing:0px;line-height:120%;opacity:1&quot;&gt;user_id (teacher)&lt;/font&gt;&lt;/div&gt;" style="verticalAlign=middle;align=center;vsdxID=147;fillColor=none;gradientColor=none;shape=stencil(nZJZDsMgDERP43+Kj5Cm94gUUqxSiAjpcvuCrGahFVL4m8HPlkcYsJl0NyqQYgre3dST+qABzyAlWa08hagAW8BmcF5dvZttz37sEpnU3T3ShBf3idQhxXvrLgwashvwJKrRr/8LV6M7MIo14UDGLJWK4HuwGLyMZml+luRfPLhqaWg2MIr8DuIT3xC2Hw==);strokeColor=#000000;spacingTop=-3;spacingBottom=-3;spacingLeft=-3;spacingRight=-3;points=[];labelBackgroundColor=none;rounded=0;html=1;whiteSpace=wrap;" parent="160" vertex="1">
                    <mxGeometry x="30" width="132" height="30" as="geometry"/>
                </mxCell>
                <mxCell id="163" style="vsdxID=14810000;fillColor=none;gradientColor=none;strokeColor=none;spacingTop=-3;spacingBottom=-3;spacingLeft=-3;spacingRight=-3;points=[];labelBackgroundColor=none;rounded=0;html=1;whiteSpace=wrap;" parent="148" vertex="1">
                    <mxGeometry y="150" width="162" height="30" as="geometry"/>
                </mxCell>
                <mxCell id="164" style="vsdxID=149;fillColor=none;gradientColor=none;shape=stencil(nZJZDsMgDERP43+Kj5Cm94gUUqxSiAjpcvuCrGahFVL4m8HPlkcYsJl0NyqQYgre3dST+qABzyAlWa08hagAW8BmcF5dvZttz37sEpnU3T3ShBf3idQhxXvrLgwashvwJKrRr/8LV6M7MIo14UDGLJWK4HuwGLyMZml+luRfPLhqaWg2MIr8DuIT3xC2Hw==);strokeColor=#000000;spacingTop=-3;spacingBottom=-3;spacingLeft=-3;spacingRight=-3;points=[];labelBackgroundColor=none;rounded=0;html=1;whiteSpace=wrap;" parent="163" vertex="1">
                    <mxGeometry width="30" height="30" as="geometry"/>
                </mxCell>
                <mxCell id="165" value="&lt;div style=&quot;font-size: 1px&quot;&gt;&lt;font style=&quot;font-size:11.64px;font-family:Helvetica;color:#000000;direction:ltr;letter-spacing:0px;line-height:120%;opacity:1&quot;&gt;table_day&lt;/font&gt;&lt;/div&gt;" style="verticalAlign=middle;align=center;vsdxID=150;fillColor=none;gradientColor=none;shape=stencil(nZJZDsMgDERP43+Kj5Cm94gUUqxSiAjpcvuCrGahFVL4m8HPlkcYsJl0NyqQYgre3dST+qABzyAlWa08hagAW8BmcF5dvZttz37sEpnU3T3ShBf3idQhxXvrLgwashvwJKrRr/8LV6M7MIo14UDGLJWK4HuwGLyMZml+luRfPLhqaWg2MIr8DuIT3xC2Hw==);strokeColor=#000000;spacingTop=-3;spacingBottom=-3;spacingLeft=-3;spacingRight=-3;points=[];labelBackgroundColor=none;rounded=0;html=1;whiteSpace=wrap;" parent="163" vertex="1">
                    <mxGeometry x="30" width="132" height="30" as="geometry"/>
                </mxCell>
                <mxCell id="166" style="vsdxID=15110000;fillColor=none;gradientColor=none;strokeColor=none;spacingTop=-3;spacingBottom=-3;spacingLeft=-3;spacingRight=-3;points=[];labelBackgroundColor=none;rounded=0;html=1;whiteSpace=wrap;" parent="148" vertex="1">
                    <mxGeometry y="180" width="162" height="30" as="geometry"/>
                </mxCell>
                <mxCell id="167" style="vsdxID=152;fillColor=none;gradientColor=none;shape=stencil(nZJZDsMgDERP43+Kj5Cm94gUUqxSiAjpcvuCrGahFVL4m8HPlkcYsJl0NyqQYgre3dST+qABzyAlWa08hagAW8BmcF5dvZttz37sEpnU3T3ShBf3idQhxXvrLgwashvwJKrRr/8LV6M7MIo14UDGLJWK4HuwGLyMZml+luRfPLhqaWg2MIr8DuIT3xC2Hw==);strokeColor=#000000;spacingTop=-3;spacingBottom=-3;spacingLeft=-3;spacingRight=-3;points=[];labelBackgroundColor=none;rounded=0;html=1;whiteSpace=wrap;" parent="166" vertex="1">
                    <mxGeometry width="30" height="30" as="geometry"/>
                </mxCell>
                <mxCell id="168" value="&lt;div style=&quot;font-size: 1px&quot;&gt;&lt;font style=&quot;font-size:11.64px;font-family:Helvetica;color:#000000;direction:ltr;letter-spacing:0px;line-height:120%;opacity:1&quot;&gt;table_time&lt;/font&gt;&lt;/div&gt;" style="verticalAlign=middle;align=center;vsdxID=153;fillColor=none;gradientColor=none;shape=stencil(nZJZDsMgDERP43+Kj5Cm94gUUqxSiAjpcvuCrGahFVL4m8HPlkcYsJl0NyqQYgre3dST+qABzyAlWa08hagAW8BmcF5dvZttz37sEpnU3T3ShBf3idQhxXvrLgwashvwJKrRr/8LV6M7MIo14UDGLJWK4HuwGLyMZml+luRfPLhqaWg2MIr8DuIT3xC2Hw==);strokeColor=#000000;spacingTop=-3;spacingBottom=-3;spacingLeft=-3;spacingRight=-3;points=[];labelBackgroundColor=none;rounded=0;html=1;whiteSpace=wrap;" parent="166" vertex="1">
                    <mxGeometry x="30" width="132" height="30" as="geometry"/>
                </mxCell>
                <mxCell id="169" style="vsdxID=15410000;fillColor=none;gradientColor=none;strokeColor=none;spacingTop=-3;spacingBottom=-3;spacingLeft=-3;spacingRight=-3;points=[];labelBackgroundColor=none;rounded=0;html=1;whiteSpace=wrap;" parent="148" vertex="1">
                    <mxGeometry y="210" width="162" height="30" as="geometry"/>
                </mxCell>
                <mxCell id="170" style="vsdxID=155;fillColor=none;gradientColor=none;shape=stencil(nZJZDsMgDERP43+Kj5Cm94gUUqxSiAjpcvuCrGahFVL4m8HPlkcYsJl0NyqQYgre3dST+qABzyAlWa08hagAW8BmcF5dvZttz37sEpnU3T3ShBf3idQhxXvrLgwashvwJKrRr/8LV6M7MIo14UDGLJWK4HuwGLyMZml+luRfPLhqaWg2MIr8DuIT3xC2Hw==);strokeColor=#000000;spacingTop=-3;spacingBottom=-3;spacingLeft=-3;spacingRight=-3;points=[];labelBackgroundColor=none;rounded=0;html=1;whiteSpace=wrap;" parent="169" vertex="1">
                    <mxGeometry width="30" height="30" as="geometry"/>
                </mxCell>
                <mxCell id="171" value="&lt;div style=&quot;font-size: 1px&quot;&gt;&lt;font style=&quot;font-size:11.64px;font-family:Helvetica;color:#000000;direction:ltr;letter-spacing:0px;line-height:120%;opacity:1&quot;&gt;table_count&lt;/font&gt;&lt;/div&gt;" style="verticalAlign=middle;align=center;vsdxID=156;fillColor=none;gradientColor=none;shape=stencil(nZJZDsMgDERP43+Kj5Cm94gUUqxSiAjpcvuCrGahFVL4m8HPlkcYsJl0NyqQYgre3dST+qABzyAlWa08hagAW8BmcF5dvZttz37sEpnU3T3ShBf3idQhxXvrLgwashvwJKrRr/8LV6M7MIo14UDGLJWK4HuwGLyMZml+luRfPLhqaWg2MIr8DuIT3xC2Hw==);strokeColor=#000000;spacingTop=-3;spacingBottom=-3;spacingLeft=-3;spacingRight=-3;points=[];labelBackgroundColor=none;rounded=0;html=1;whiteSpace=wrap;" parent="169" vertex="1">
                    <mxGeometry x="30" width="132" height="30" as="geometry"/>
                </mxCell>
                <UserObject label="" tags="Background" id="172">
                    <mxCell style="vsdxID=112;edgeStyle=none;startArrow=ERmany;endArrow=ERone;startSize=5;endSize=5;strokeColor=#F875AA;spacingTop=0;spacingBottom=0;spacingLeft=0;spacingRight=0;verticalAlign=middle;html=1;labelBackgroundColor=#ffffff;rounded=0;exitX=1;exitY=0.5;exitDx=0;exitDy=0;exitPerimeter=0;entryX=0;entryY=0.5;entryDx=0;entryDy=0;entryPerimeter=0;" parent="2" source="103" target="115" edge="1">
                        <mxGeometry relative="1" as="geometry">
                            <mxPoint x="-27" y="198" as="offset"/>
                            <Array as="points">
                                <mxPoint x="189.36" y="565"/>
                                <mxPoint x="189.36" y="365"/>
                            </Array>
                        </mxGeometry>
                    </mxCell>
                </UserObject>
                <UserObject label="" tags="Background" id="173">
                    <mxCell style="vsdxID=113;edgeStyle=none;startArrow=ERone;endArrow=ERmany;startSize=5;endSize=5;strokeColor=#F875AA;spacingTop=0;spacingBottom=0;spacingLeft=0;spacingRight=0;verticalAlign=middle;html=1;labelBackgroundColor=#ffffff;rounded=0;exitX=1;exitY=0.5;exitDx=0;exitDy=0;exitPerimeter=0;entryX=0;entryY=0.5;entryDx=0;entryDy=0;entryPerimeter=0;" parent="2" source="82" target="55" edge="1">
                        <mxGeometry relative="1" as="geometry">
                            <mxPoint x="-29" y="162" as="offset"/>
                            <Array as="points">
                                <mxPoint x="409.18" y="45"/>
                                <mxPoint x="409.18" y="165"/>
                            </Array>
                        </mxGeometry>
                    </mxCell>
                </UserObject>
                <mxCell id="174" parent="2" vertex="1">
                    <mxGeometry x="163" y="535" as="geometry"/>
                </mxCell>
                <UserObject label="" tags="Background" id="175">
                    <mxCell style="vsdxID=114;edgeStyle=none;startArrow=ERone;endArrow=ERone;startSize=5;endSize=5;strokeColor=#F875AA;spacingTop=0;spacingBottom=0;spacingLeft=0;spacingRight=0;verticalAlign=middle;html=1;labelBackgroundColor=#ffffff;rounded=0;entryX=1;entryY=0.5;entryDx=0;entryDy=0;entryPerimeter=0;" parent="2" source="174" target="67" edge="1">
                        <mxGeometry relative="1" as="geometry">
                            <mxPoint x="-27" y="201" as="offset"/>
                            <Array as="points">
                                <mxPoint x="189.36" y="535"/>
                                <mxPoint x="189.36" y="735"/>
                            </Array>
                        </mxGeometry>
                    </mxCell>
                </UserObject>
                <mxCell id="176" parent="2" vertex="1">
                    <mxGeometry x="436" y="135" as="geometry"/>
                </mxCell>
                <UserObject label="" tags="Background" id="177">
                    <mxCell style="vsdxID=115;edgeStyle=none;startArrow=ERmany;endArrow=ERone;startSize=5;endSize=5;strokeColor=#F875AA;spacingTop=0;spacingBottom=0;spacingLeft=0;spacingRight=0;verticalAlign=middle;html=1;labelBackgroundColor=#ffffff;rounded=0;exitX=1;exitY=0.5;exitDx=0;exitDy=0;exitPerimeter=0;" parent="2" source="10" target="176" edge="1">
                        <mxGeometry relative="1" as="geometry">
                            <mxPoint x="-107" y="79" as="offset"/>
                            <Array as="points">
                                <mxPoint x="189.36" y="75"/>
                                <mxPoint x="189.36" y="179.96"/>
                                <mxPoint x="409.36" y="179.96"/>
                                <mxPoint x="409.36" y="135"/>
                            </Array>
                        </mxGeometry>
                    </mxCell>
                </UserObject>
                <mxCell id="178" parent="2" vertex="1">
                    <mxGeometry x="163" y="705" as="geometry"/>
                </mxCell>
                <mxCell id="179" parent="2" vertex="1">
                    <mxGeometry x="211" y="585" as="geometry"/>
                </mxCell>
                <UserObject label="" tags="Background" id="180">
                    <mxCell style="vsdxID=157;edgeStyle=none;startArrow=ERone;endArrow=ERmany;startSize=5;endSize=5;strokeColor=#F875AA;spacingTop=0;spacingBottom=0;spacingLeft=0;spacingRight=0;verticalAlign=middle;html=1;labelBackgroundColor=#ffffff;rounded=0;" parent="2" source="178" target="179" edge="1">
                        <mxGeometry relative="1" as="geometry">
                            <mxPoint x="-27" y="159" as="offset"/>
                            <Array as="points">
                                <mxPoint x="189.36" y="705"/>
                                <mxPoint x="189.36" y="585"/>
                            </Array>
                        </mxGeometry>
                    </mxCell>
                </UserObject>
                <mxCell id="181" parent="2" vertex="1">
                    <mxGeometry x="373" y="555" as="geometry"/>
                </mxCell>
                <mxCell id="182" parent="2" vertex="1">
                    <mxGeometry x="436" y="135" as="geometry"/>
                </mxCell>
                <UserObject label="" tags="Background" id="183">
                    <mxCell style="vsdxID=158;edgeStyle=none;startArrow=ERmany;endArrow=ERone;startSize=5;endSize=5;strokeColor=#F875AA;spacingTop=0;spacingBottom=0;spacingLeft=0;spacingRight=0;verticalAlign=middle;html=1;labelBackgroundColor=#ffffff;rounded=0;" parent="2" source="181" target="182" edge="1">
                        <mxGeometry relative="1" as="geometry">
                            <mxPoint x="-37" y="306" as="offset"/>
                            <Array as="points">
                                <mxPoint x="409.36" y="555"/>
                                <mxPoint x="409.36" y="135"/>
                            </Array>
                        </mxGeometry>
                    </mxCell>
                </UserObject>
                <mxCell id="184" parent="2" vertex="1">
                    <mxGeometry x="163" y="825" as="geometry"/>
                </mxCell>
                <UserObject label="" tags="Background" id="185">
                    <mxCell style="vsdxID=159;edgeStyle=none;startArrow=ERmany;endArrow=ERone;startSize=5;endSize=5;strokeColor=#F875AA;spacingTop=0;spacingBottom=0;spacingLeft=0;spacingRight=0;verticalAlign=middle;html=1;labelBackgroundColor=#ffffff;rounded=0;entryX=0;entryY=0.5;entryDx=0;entryDy=0;entryPerimeter=0;" parent="2" source="184" target="91" edge="1">
                        <mxGeometry relative="1" as="geometry">
                            <mxPoint x="-27" y="123" as="offset"/>
                            <Array as="points">
                                <mxPoint x="189.36" y="825"/>
                                <mxPoint x="189.36" y="775"/>
                            </Array>
                        </mxGeometry>
                    </mxCell>
                </UserObject>
                <mxCell id="186" parent="2" vertex="1">
                    <mxGeometry x="211" y="615" as="geometry"/>
                </mxCell>
                <mxCell id="187" parent="2" vertex="1">
                    <mxGeometry x="163" y="45" as="geometry"/>
                </mxCell>
                <UserObject label="" tags="Background" id="188">
                    <mxCell style="vsdxID=160;edgeStyle=none;startArrow=ERmany;endArrow=ERone;startSize=5;endSize=5;strokeColor=#F875AA;spacingTop=0;spacingBottom=0;spacingLeft=0;spacingRight=0;verticalAlign=middle;html=1;labelBackgroundColor=#ffffff;rounded=0;" parent="2" source="186" target="187" edge="1">
                        <mxGeometry relative="1" as="geometry">
                            <mxPoint x="21" y="388" as="offset"/>
                            <Array as="points">
                                <mxPoint x="189.36" y="615"/>
                                <mxPoint x="189.36" y="45"/>
                            </Array>
                        </mxGeometry>
                    </mxCell>
                </UserObject>
                <UserObject label="" tags="Background" id="189">
                    <mxCell style="vsdxID=16110000;fillColor=none;gradientColor=none;strokeColor=none;spacingTop=-3;spacingBottom=-3;spacingLeft=-3;spacingRight=-3;points=[];labelBackgroundColor=none;rounded=0;html=1;whiteSpace=wrap;" parent="1" vertex="1">
                        <mxGeometry x="1490" y="20" width="470" height="830" as="geometry"/>
                    </mxCell>
                </UserObject>
                <mxCell id="190" style="vsdxID=162;fillColor=#F875AA;gradientColor=none;shape=stencil(nZBdCsIwEIRPs6+SJoIHqPUCniCY1SzGpKT19/SmHYQoPvVtZ+YbFoZMO3jbM2k1jDmd+S5u9GS2pLVEz1nGcpHpyLTHlPmU0zU66N4WUqvZYYdOM9Fa2XzYy4vhrVcbuKhd0m1690CoED1rtQMYJFZgoxajH/0XXox+geWY58BQEgLWrPPf+YqF6U33Bg==);strokeColor=#000000;spacingTop=-3;spacingBottom=-3;spacingLeft=-3;spacingRight=-3;points=[];labelBackgroundColor=none;rounded=1;html=1;whiteSpace=wrap;" parent="189" vertex="1">
                    <mxGeometry width="470" height="830" as="geometry"/>
                </mxCell>
                <mxCell id="191" value="&lt;div style=&quot;font-size: 1px&quot;&gt;&lt;font style=&quot;font-size:19.4px;font-family:prompt;color:#000000;direction:ltr;letter-spacing:0px;line-height:120%;opacity:1&quot;&gt;ระบบสร้างตารางเรียน (เป็นระบบภายในของโรงเรียน)&lt;/font&gt;&lt;font style=&quot;font-size:19.4px;font-family:prompt;color:#000000;direction:ltr;letter-spacing:0px;line-height:120%;opacity:1&quot;&gt;&lt;br/&gt;&lt;/font&gt;&lt;font style=&quot;font-size:19.4px;font-family:prompt;color:#000000;direction:ltr;letter-spacing:0px;line-height:120%;opacity:1&quot;&gt;&lt;br/&gt;&lt;/font&gt;&lt;font style=&quot;font-size:19.4px;font-family:prompt;color:#000000;direction:ltr;letter-spacing:0px;line-height:120%;opacity:1&quot;&gt;&lt;br/&gt;&lt;/font&gt;&lt;font style=&quot;font-size:16.49px;font-family:prompt;color:#000000;direction:ltr;letter-spacing:0px;line-height:120%;opacity:1&quot;&gt;อธิบาย&lt;/font&gt;&lt;font style=&quot;font-size:11.64px;font-family:prompt;color:#000000;direction:ltr;letter-spacing:0px;line-height:120%;opacity:1&quot;&gt;&lt;br/&gt;&lt;/font&gt;&lt;font style=&quot;font-size:16.49px;font-family:prompt;color:#000000;direction:ltr;letter-spacing:0px;line-height:120%;opacity:1&quot;&gt;    &lt;/font&gt;&lt;font style=&quot;font-size:14.55px;font-family:prompt;color:#000000;direction:ltr;letter-spacing:0px;line-height:120%;opacity:1&quot;&gt;การทำงานของระบบคือผู้ใช้งานสามารถเข้าชมได้เลยจากทางระบบ ในการเพิ่มลบหรือปรับแต่งรายละเอียดต่างๆ จะเป็นในฝั่งของทาง ผู้ดูแลระบบเป็นคนจัดการทั้งหมด(Admin) ซึ่งระบบจะอิ่งข้อมูลตามการเรียนในแต่ละเทอมของผู้ใช้งาน(นักเรียน)&lt;/font&gt;&lt;font style=&quot;font-size:11.64px;font-family:prompt;color:#000000;direction:ltr;letter-spacing:0px;line-height:120%;opacity:1&quot;&gt;&lt;br/&gt;&lt;/font&gt;&lt;font style=&quot;font-size:11.64px;font-family:prompt;color:#000000;direction:ltr;letter-spacing:0px;line-height:120%;opacity:1&quot;&gt;&lt;br/&gt;&lt;/font&gt;&lt;font style=&quot;font-size:14.55px;font-family:prompt;color:#000000;direction:ltr;letter-spacing:0px;line-height:120%;opacity:1&quot;&gt;&lt;br/&gt;&lt;/font&gt;&lt;font style=&quot;font-size:11.64px;font-family:prompt;color:#000000;direction:ltr;letter-spacing:0px;line-height:120%;opacity:1&quot;&gt;&lt;br/&gt;&lt;/font&gt;&lt;font style=&quot;font-size:14.55px;font-family:prompt;color:#000000;direction:ltr;letter-spacing:0px;line-height:120%;opacity:1&quot;&gt;USER&lt;/font&gt;&lt;font style=&quot;font-size:11.64px;font-family:prompt;color:#000000;direction:ltr;letter-spacing:0px;line-height:120%;opacity:1&quot;&gt;&lt;br/&gt;&lt;/font&gt;&lt;font style=&quot;font-size:11.64px;font-family:prompt;color:#000000;direction:ltr;letter-spacing:0px;line-height:120%;opacity:1&quot;&gt;- USER or STUDENT&lt;/font&gt;&lt;font style=&quot;font-size:11.64px;font-family:prompt;color:#000000;direction:ltr;letter-spacing:0px;line-height:120%;opacity:1&quot;&gt;&lt;br/&gt;&lt;/font&gt;&lt;font style=&quot;font-size:11.64px;font-family:prompt;color:#000000;direction:ltr;letter-spacing:0px;line-height:120%;opacity:1&quot;&gt;- TEACHER&lt;/font&gt;&lt;font style=&quot;font-size:11.64px;font-family:prompt;color:#000000;direction:ltr;letter-spacing:0px;line-height:120%;opacity:1&quot;&gt;&lt;br/&gt;&lt;/font&gt;&lt;font style=&quot;font-size:11.64px;font-family:prompt;color:#000000;direction:ltr;letter-spacing:0px;line-height:120%;opacity:1&quot;&gt;- ADMIN&lt;/font&gt;&lt;font style=&quot;font-size:11.64px;font-family:prompt;color:#000000;direction:ltr;letter-spacing:0px;line-height:120%;opacity:1&quot;&gt;&lt;br/&gt;&lt;/font&gt;&lt;font style=&quot;font-size:14.55px;font-family:prompt;color:#000000;direction:ltr;letter-spacing:0px;line-height:120%;opacity:1&quot;&gt;&lt;br/&gt;&lt;/font&gt;&lt;font style=&quot;font-size:11.64px;font-family:prompt;color:#000000;direction:ltr;letter-spacing:0px;line-height:120%;opacity:1&quot;&gt;&lt;br/&gt;&lt;/font&gt;&lt;font style=&quot;font-size:16.49px;font-family:prompt;color:#000000;direction:ltr;letter-spacing:0px;line-height:120%;opacity:1&quot;&gt;การใช้งาน&lt;/font&gt;&lt;font style=&quot;font-size:11.64px;font-family:prompt;color:#000000;direction:ltr;letter-spacing:0px;line-height:120%;opacity:1&quot;&gt;&lt;br/&gt;&lt;/font&gt;&lt;font style=&quot;font-size:11.64px;font-family:prompt;color:#000000;direction:ltr;letter-spacing:0px;line-height:120%;opacity:1&quot;&gt;&lt;br/&gt;&lt;/font&gt;&lt;font style=&quot;font-size:13.58px;font-family:prompt;color:#000000;direction:ltr;letter-spacing:0px;line-height:120%;opacity:1&quot;&gt;USER : &lt;/font&gt;&lt;font style=&quot;font-size:13.58px;font-family:prompt;color:#000000;direction:ltr;letter-spacing:0px;line-height:120%;opacity:1&quot;&gt;สามารถ login&lt;/font&gt;&lt;font style=&quot;font-size:13.58px;font-family:prompt;color:#000000;direction:ltr;letter-spacing:0px;line-height:120%;opacity:1&quot;&gt;&lt;br/&gt;&lt;/font&gt;&lt;font style=&quot;font-size:13.58px;font-family:prompt;color:#000000;direction:ltr;letter-spacing:0px;line-height:120%;opacity:1&quot;&gt;    &lt;/font&gt;&lt;font style=&quot;font-size:13.58px;font-family:prompt;color:#000000;direction:ltr;letter-spacing:0px;line-height:120%;opacity:1&quot;&gt;- &lt;/font&gt;&lt;font style=&quot;font-size:13.58px;font-family:prompt;color:#000000;direction:ltr;letter-spacing:0px;line-height:120%;opacity:1&quot;&gt;ดูตารางเรียน&lt;/font&gt;&lt;font style=&quot;font-size:13.58px;font-family:prompt;color:#000000;direction:ltr;letter-spacing:0px;line-height:120%;opacity:1&quot;&gt;&lt;br/&gt;&lt;/font&gt;&lt;font style=&quot;font-size:13.58px;font-family:prompt;color:#000000;direction:ltr;letter-spacing:0px;line-height:120%;opacity:1&quot;&gt;ADMIN / TEACHER : &lt;/font&gt;&lt;font style=&quot;font-size:13.58px;font-family:prompt;color:#000000;direction:ltr;letter-spacing:0px;line-height:120%;opacity:1&quot;&gt;login&lt;/font&gt;&lt;font style=&quot;font-size:13.58px;font-family:prompt;color:#000000;direction:ltr;letter-spacing:0px;line-height:120%;opacity:1&quot;&gt;&lt;br/&gt;&lt;/font&gt;&lt;font style=&quot;font-size:13.58px;font-family:prompt;color:#000000;direction:ltr;letter-spacing:0px;line-height:120%;opacity:1&quot;&gt;    &lt;/font&gt;&lt;font style=&quot;font-size:13.58px;font-family:prompt;color:#000000;direction:ltr;letter-spacing:0px;line-height:120%;opacity:1&quot;&gt;- สามารถ ดูข้อมูล, เพิ่ม, ลบ หรือแก้ไข ( วิชาเรียน, อาคารเรียน, ชั้นเรียน, ห้องเรียน, วิชาหลัก, ห้องเรียนที่เป็นห้องของวิชา)&lt;/font&gt;&lt;font style=&quot;font-size:13.58px;font-family:prompt;color:#000000;direction:ltr;letter-spacing:0px;line-height:120%;opacity:1&quot;&gt;&lt;br/&gt;&lt;/font&gt;&lt;/div&gt;" style="verticalAlign=middle;align=left;vsdxID=163;fillColor=none;gradientColor=none;shape=stencil(nZBRDoQgDERP03+WHsHFe5iISyOCQdT19kIaIxq//Jtp3zTpAFaTaUYNUkwx+F6v1EYD+AUpyRkdKCYFqACrzgf9C352LfuxyWRWg1/yhT/nRE5IsZWuZtCSK8CPeI0e/hF+jV7AJM4PO7KWCyr390bSiNtEtQM=);strokeColor=none;spacingTop=-3;spacingBottom=-3;spacingLeft=-3;spacingRight=-3;points=[];labelBackgroundColor=none;rounded=0;html=1;whiteSpace=wrap;" parent="189" vertex="1">
                    <mxGeometry x="5" y="10" width="460" height="810" as="geometry"/>
                </mxCell>
            </root>
        </mxGraphModel>
    </diagram>
</mxfile>